<svg xmlns="http://www.w3.org/2000/svg" version="1.1" xmlns:xlink="http://www.w3.org/1999/xlink" xmlns:svgjs="http://svgjs.dev/svgjs" viewBox="0 0 5.990486332180007 5.714763495400675"><g transform="matrix(1,0,0,1,2.995127048927905,4.43629805293237)"><rect width="5.990486332180007" height="5.990486332180007" x="-2.9951270489279054" y="-4.574159471322036" fill="#f9f7e9"></rect><g><path d=" M -2.4474318571216607 -1.639415476247267 L -2.426410439303253 -1.775002604756364 Q -2.4228195921314253 -1.79816339539137 -2.41658799057059 -1.8256088552419019 Q -2.410356389009754 -1.8530543150924337 -2.3985758480259483 -1.8796394678080484 Q -2.386795307042142 -1.9062246205236633 -2.3678349980134348 -1.9297201629537915 Q -2.348874688984727 -1.9532157053839199 -2.319714212903036 -1.9692004358854627 Q -2.2905537368213453 -1.9851851663870055 -2.2493584114869978 -1.991151118915572 Q -2.2081630861526502 -1.9971170714441384 -2.152191175451386 -1.9884391907788883 L -2.1314429671741935 -1.9852223901874593 Q -2.037352255219482 -1.9706345735519095 -1.9824333091535262 -1.934449509924634 Q -1.9275143630875704 -1.8982644462973586 -1.9096126890758809 -1.8416304478287266 L -1.5595561863927596 -1.9227451981544208 L -1.5800539389986092 -1.7905356849462621 L -1.905363679077227 -1.7288075988765024 L -1.912620182736962 -1.6820035011349281 L -1.6042921574084459 -1.6342003481599723 L -1.6232937236927008 -1.511641164383066 L -2.4474318571216607 -1.639415476247267 M -1.9999331995920626 -1.7148109856327822 Q -1.99484616609864 -1.7476221056990406 -1.9985678753163314 -1.77142251960368 Q -2.002289584534023 -1.7952229335083194 -2.0172494491081836 -1.8118716419044665 Q -2.032209313682344 -1.8285203503006133 -2.059464006159721 -1.8391694094215925 Q -2.086718698637098 -1.8498184685425716 -2.1282151151914834 -1.8562520697254294 L -2.1933548388524375 -1.8663513273961947 Q -2.2252009259755705 -1.8712887422574578 -2.2492594284035334 -1.869089391770534 Q -2.273317930831496 -1.86689004128361 -2.2904080069582102 -1.8554574106425474 Q -2.307498083084924 -1.8440247800014846 -2.3182518680141113 -1.8224686455792374 Q -2.3290056529432985 -1.8009125111569904 -2.3343171143849606 -1.7666538416760442 L -2.3372346777120705 -1.7478356992851019 L -2.0028507629191727 -1.6959928432418399 L -1.9999331995920626 -1.7148109856327822 M -2.280593574001297 -2.338857365256571 L -2.2314971591470916 -2.455403059098839 L -1.4629255565115937 -2.1316321070873245 L -1.5120219713657987 -2.015086413245056 L -2.280593574001297 -2.338857365256571 M -1.5555122866272193 -2.339657048813793 Q -1.5772174381463155 -2.3554716812570495 -1.593699155141894 -2.371407388411332 Q -1.6101808721374724 -2.387343095565615 -1.6277533805059972 -2.408000497778053 L -1.5699580873951873 -2.487322960602387 L -1.5372030405572783 -2.4634572425516543 Q -1.5099729413787757 -2.4436170673046598 -1.4866129885373252 -2.431731944912291 Q -1.4632530356958746 -2.4198468225199226 -1.4432417018215016 -2.41704712016435 Q -1.4232303679471285 -2.414247417808778 -1.4065845341742356 -2.421753721884603 Q -1.3899387004013426 -2.4292600259604282 -1.3764243781316507 -2.4478080645312925 Q -1.3551465090261785 -2.4770113593024403 -1.3599153812304767 -2.5040476051787426 Q -1.3646842534347747 -2.5310838510550453 -1.3954661046800387 -2.5535118752473 Q -1.4112516694211996 -2.5650134261151227 -1.4260535431362475 -2.572475459815015 Q -1.4408554168512955 -2.5799374935149064 -1.4577602811806434 -2.5840986448807186 Q -1.4746651455099915 -2.588259796246531 -1.495682865085299 -2.5896782616872516 Q -1.5167005846606063 -2.5910967271279723 -1.544810740775453 -2.589828963587228 L -1.7491253661810737 -2.57557634729867 Q -1.806134956647825 -2.573615897760573 -1.854247726326416 -2.585109847291477 Q -1.9023604960050071 -2.596603796822381 -1.9441922425690836 -2.6270829066221117 Q -1.9777365676440506 -2.651523702216235 -1.9981361676096787 -2.68239689164764 Q -2.0185357675753064 -2.7132700810790444 -2.0244827435947728 -2.7478102837478176 Q -2.030429719614239 -2.7823504864165907 -2.0205428347726917 -2.819551316621798 Q -2.0106559499311443 -2.856752146827005 -1.9839148441634562 -2.893453584850204 Q -1.9514229629618567 -2.9380478052439836 -1.9170853339059122 -2.9586418179986667 Q -1.882747704849968 -2.9792358307533497 -1.849287225960158 -2.982042574958986 Q -1.815826747070348 -2.9848493191646224 -1.785053056648858 -2.9736038920830445 Q -1.754279366227368 -2.9623584650014676 -1.7286278235229813 -2.943668444841255 Q -1.706922672003885 -2.927853812397999 -1.6910160325516979 -2.911128827006658 Q -1.6751093930995105 -2.8944038416153175 -1.6561725289505365 -2.873960640096546 L -1.7136802832896507 -2.7950328163907416 L -1.7456460518905017 -2.8183234568980824 Q -1.799316972010449 -2.8574287298486802 -1.8391423201999304 -2.8628843651739775 Q -1.8789676683894119 -2.8683400004992743 -1.904271080298622 -2.83361175806872 Q -1.9252614106323989 -2.8048031024161015 -1.919629922113014 -2.778950773895386 Q -1.913998433593629 -2.7530984453746705 -1.8871629735336555 -2.733545808899372 Q -1.8729559652666106 -2.723194413118331 -1.8599299675849432 -2.7170263038910694 Q -1.8469039699032759 -2.7108581946638073 -1.8342161543965114 -2.7079572055018204 Q -1.8215283388897467 -2.705056216339834 -1.8081385575881457 -2.704362411368771 Q -1.7947487762865446 -2.7036686063977085 -1.779419561661103 -2.7039782803573704 L -1.5492217522361715 -2.7181005421374187 Q -1.4834171872745292 -2.7196943012853723 -1.4318935281448153 -2.7087358534886357 Q -1.3803698690151014 -2.697777405691899 -1.3369595659769087 -2.666148140805386 Q -1.3010474061907678 -2.639982112581089 -1.2804336055314727 -2.6077445673692354 Q -1.2598198048721778 -2.5755070221573813 -1.2549327647270627 -2.539926671518869 Q -1.2500457245819478 -2.5043463208803565 -1.2607585566995676 -2.4668410707690516 Q -1.2714713888171874 -2.4293358206577467 -1.298500033356571 -2.3922397435160185 Q -1.3318545308732572 -2.3464616057666516 -1.3660850595823681 -2.3251854151217444 Q -1.400315588291479 -2.3039092244768367 -1.4335251974486078 -2.30061762194024 Q -1.4667348066057364 -2.2973260194036436 -1.4977058165864912 -2.308715215871069 Q -1.5286768265672457 -2.320104412338494 -1.5555122866272193 -2.339657048813793 M -1.6193984216657558 -3.2873337799248707 L -1.3767409381955942 -3.478773190072192 L -1.3150448249727607 -3.400570778337732 L -1.4584159131526035 -3.2874612374292047 L -1.3038731981679572 -3.091571862937494 L -1.1930864482108061 -3.178974690003175 L -1.1313903349879728 -3.100772278268715 L -1.242177084945124 -3.0133694512030345 L -1.0652544073208225 -2.7891125351998047 L -0.918049867585369 -2.905246395383961 L -0.8563537543625357 -2.8270439836495016 L -1.1028446893883082 -2.6325802542265517 L -1.6193984216657558 -3.2873337799248707 M -0.6594191196294739 -3.1581690290553475 Q -0.6685042367324702 -3.198666373181026 -0.6631802149348903 -3.237392068337612 Q -0.6578561931373106 -3.276117763494198 -0.6455857363257003 -3.310647010977732 Q -0.6333152795140898 -3.345176258461267 -0.61761824089305 -3.3744692106207466 Q -0.6019212022720101 -3.403762162780226 -0.5902602857280861 -3.425394020911693 L -0.580496051664481 -3.4420966225755234 L -0.6032148968827851 -3.4675253756362823 Q -0.62062585513112 -3.4871390477448587 -0.6376183533472622 -3.509348684027957 Q -0.6546108515634045 -3.531558320311056 -0.6692501427215027 -3.555546915469221 Q -0.683889433879601 -3.5795355106273865 -0.6951691974290334 -3.605278612450538 Q -0.7064489609784658 -3.6310217142736896 -0.7124344498933809 -3.657702317462372 Q -0.7217333344576241 -3.6991525402733605 -0.7149220153216168 -3.735709806177918 Q -0.7081106961856095 -3.7722670720824754 -0.6890495925107532 -3.8010636701343703 Q -0.6699884888358968 -3.8298602681862652 -0.6399465930542212 -3.849860888179644 Q -0.6099046972725457 -3.8698615081730234 -0.5727424285454524 -3.8781984391616553 Q -0.5241456155946381 -3.889100579685251 -0.4891490036587498 -3.8814387281494063 Q -0.45415239172286137 -3.8737768766135616 -0.43060116388532266 -3.855790912674418 Q -0.40704993604778394 -3.8378049487352746 -0.3939468466482744 -3.813972141727894 Q -0.38084375724876474 -3.7901393347205135 -0.37592710564008436 -3.7682231249583813 Q -0.36598691869210026 -3.7239142660914624 -0.372021062058512 -3.68277738456637 Q -0.37805520542492366 -3.6416405030412777 -0.39130299313192474 -3.6058911675458747 Q -0.4045507808389257 -3.570141832050471 -0.42096247847394813 -3.5406885542950564 Q -0.4373741761089706 -3.511235276539641 -0.4482959814288314 -3.4907700645547317 L -0.45610555370165523 -3.476507638914639 L -0.28305573363423975 -3.280633589710283 Q -0.2808348699933957 -3.30865477697691 -0.28272172007558194 -3.3382565329771356 Q -0.2846085701577682 -3.367858288977361 -0.29134224518704777 -3.397873967564629 Q -0.29486940829762276 -3.4135964658722453 -0.2983920339630471 -3.4270681034072905 Q -0.30191465962847147 -3.4405397409423357 -0.30575339904061566 -3.4531898357327746 L -0.20617757642571183 -3.4755285354330834 Q -0.201016402716226 -3.4636755311771696 -0.19656535057557212 -3.4494113405527496 Q -0.19211429843491817 -3.4351471499283295 -0.18890778651621365 -3.420853969648678 Q -0.17618862257201884 -3.364157687872728 -0.1819772363611291 -3.3063119022543277 Q -0.1877658501502394 -3.248466116635927 -0.20799712994030745 -3.19588738098114 L -0.10353138045029808 -3.078205348329682 L -0.23121712428184937 -3.049560508522588 L -0.26858610053288023 -3.091218953873177 Q -0.2970111280197516 -3.057319161422259 -0.3318128797828269 -3.0339988433500733 Q -0.3666146315459023 -3.0106785252778883 -0.40615909698627073 -3.0018071756361393 Q -0.4518972738811548 -2.9915463374962847 -0.4930586076163275 -2.9965741603120746 Q -0.5342199413515002 -3.0016019831278644 -0.5676251446791609 -3.0211304512550745 Q -0.6010303480068215 -3.0406589193822846 -0.62477366355635 -3.075115567743409 Q -0.6485169791058784 -3.1095722161045334 -0.6594191196294739 -3.1581690290553475 M -0.5124090851006537 -3.557955071806402 Q -0.505338624051893 -3.5710508512999377 -0.49650281646351746 -3.588546006053143 Q -0.4876670088751419 -3.606041160806348 -0.4808773694883919 -3.627080620974235 Q -0.47408773010164185 -3.6481200811421215 -0.4715951196890884 -3.6726993092795395 Q -0.4691025092765351 -3.697278537416957 -0.47508799819145026 -3.7239591406056394 Q -0.4791495799551427 -3.742063835626531 -0.48714493751047827 -3.7542818580493256 Q -0.49514029506581375 -3.7664998804721206 -0.5054018907134997 -3.773205323354 Q -0.5156634863611858 -3.7799107662358797 -0.5273453251465355 -3.781793836380747 Q -0.5390271639318853 -3.7836769065256135 -0.5509381474982614 -3.7810048132600267 Q -0.5618962523793274 -3.7785464874556864 -0.5728987242354038 -3.7718246597775313 Q -0.5839011960914803 -3.7651028320993767 -0.5915305280034389 -3.7533829287684943 Q -0.5991598599153976 -3.741663025437612 -0.6020111860653539 -3.724259377095251 Q -0.6048625122153102 -3.70685572875289 -0.5995183256841359 -3.6830337616201376 Q -0.5958842788429374 -3.6668348239698663 -0.5897901412130714 -3.6519384058520066 Q -0.5836960035832054 -3.637041987734147 -0.5740774753035877 -3.6209345564947197 Q -0.5644589470239699 -3.6048271252552926 -0.550732705021322 -3.5871391252822664 Q -0.537006463018674 -3.5694511253092402 -0.5185846467745666 -3.547562140218012 L -0.5124090851006537 -3.557955071806402 M -0.54071513913895 -3.2023135248185097 Q -0.5355847200690227 -3.1794444363710674 -0.5240758117385641 -3.1582564979583703 Q -0.5125669034081055 -3.1370685595456727 -0.4949802422440561 -3.122248270518878 Q -0.47739358108000673 -3.107427981492083 -0.4536802626622054 -3.100987982952435 Q -0.4299669442444041 -3.0945479844127863 -0.4009041443424466 -3.101067891980819 Q -0.37708217720969445 -3.1064120785119935 -0.35849474041666984 -3.1205903076472157 Q -0.3399073036236452 -3.1347685367824383 -0.3261268622478541 -3.1558750511510887 L -0.5161601056411105 -3.3694570150934005 Q -0.5367301864036517 -3.327311040556863 -0.5431583375921755 -3.2845845154078708 Q -0.5495864887806993 -3.241857990258878 -0.54071513913895 -3.2023135248185097 M 0.39667892397759186 -3.0033295638791104 Q 0.38252058921678406 -3.0070869935846813 0.3644569193052474 -3.0151645390569515 Q 0.34639324939371074 -3.023242084529221 0.328965809276466 -3.0384759442780123 Q 0.31153836915922134 -3.0537098040268034 0.29701067977493356 -3.077014820900787 Q 0.28248299039064567 -3.1003198377747707 0.2750980206098959 -3.1343588618661826 Q 0.2677130508291461 -3.168397885957594 0.2698595692474516 -3.2145577046071323 Q 0.27200608766575707 -3.2607175232566705 0.28803778774286015 -3.3211264182361173 L 0.3638126201385426 -3.606652835912408 Q 0.379969567872498 -3.6675336753838814 0.40134056280705516 -3.7080863956104455 Q 0.4227115577416123 -3.7486391158370096 0.4470575935158277 -3.7737519785988596 Q 0.4714036292900431 -3.79886484136071 0.49751126698080583 -3.8106280191789232 Q 0.5236189046715687 -3.822391196997137 0.5491865140895092 -3.825456979405896 Q 0.5747541235074498 -3.828522761814655 0.5981589450658565 -3.825342541237903 Q 0.6215637666242633 -3.8221623206611506 0.6409134907973673 -3.817027166730204 Q 0.6899957179681676 -3.8040014104175572 0.7201701909278004 -3.781595784929846 Q 0.7503446638874331 -3.759190159442134 0.7651464347684392 -3.7302553863568706 Q 0.7799482056494453 -3.7013206132716077 0.7808847778917141 -3.6677299474892093 Q 0.7818213501339829 -3.634139281706811 0.7725530235269077 -3.5992153892968184 Q 0.7656644024000274 -3.5732584422353373 0.7567727471582173 -3.5521271331256257 Q 0.7478810919164072 -3.530995824015914 0.7356758337203784 -3.505944656687782 L 0.6379833238708046 -3.531870921656222 L 0.6481283840758464 -3.570098425510403 Q 0.6833229756513617 -3.7027148277699697 0.6120593573552957 -3.7216272239546773 Q 0.5927096331821917 -3.7267623778856245 0.5767978312254507 -3.7239125847028185 Q 0.5608860292687098 -3.7210627915200125 0.547251342923617 -3.707757604174158 Q 0.5336166565785241 -3.694452416828303 0.5222445627773881 -3.6696853225069197 Q 0.510872468976252 -3.644918228185536 0.5006021611143578 -3.606218779839328 L 0.40366047471062527 -3.2409337430104865 Q 0.3936406621624359 -3.2031781836483324 0.3914860090235162 -3.176975272830808 Q 0.38933135588459655 -3.1507723620132833 0.3945263484598458 -3.1332278089598002 Q 0.39972134103509516 -3.1156832559063177 0.41195286018238253 -3.1056171993868094 Q 0.4241843793296699 -3.095551142867301 0.4435341035027739 -3.090415988936354 Q 0.4638277166599317 -3.085030339691702 0.48127606819194474 -3.0917664133998843 Q 0.49872441972395776 -3.098502487108067 0.5130479681817386 -3.11440336916007 Q 0.5273715166395195 -3.1303042512120727 0.5384931151269507 -3.154127456549402 Q 0.5496147136143821 -3.1779506618867317 0.5573800683392289 -3.2072112203924013 L 0.5853102958173069 -3.312454842114406 L 0.5225416783777257 -3.329112780475771 L 0.5438337800426281 -3.4093433441203485 L 0.725532409472995 -3.361122996232187 L 0.617193186295697 -2.9528910106288953 L 0.5360187336670654 -2.9744336076075024 L 0.543094408300395 -3.054395549707731 Q 0.5080706007901008 -3.015697958150939 0.4729043477870176 -3.0040654879419466 Q 0.43773809478393455 -2.9924330177329543 0.39667892397759186 -3.0033295638791104 M 1.185738375610677 -3.59640880959004 L 1.3005582966343516 -3.521294528920146 Q 1.3201716639266519 -3.50846361976657 1.3425976010660885 -3.4914588125686565 Q 1.3650235382055254 -3.4744540053707436 1.384375403360251 -3.45275016225905 Q 1.4037272685149769 -3.431046319147357 1.4173013719811682 -3.404078235276989 Q 1.43087547544736 -3.3771101514066215 1.4333980931210548 -3.3439517229970876 Q 1.4359207107947496 -3.310793294587554 1.4243501917591463 -3.270808666188348 Q 1.412779672723543 -3.230824037789142 1.3817716422690671 -3.18342506683275 L 1.3702772861523216 -3.165854758633398 Q 1.3181517177159185 -3.0861754540084276 1.2625239064725453 -3.0510899002437086 Q 1.2068960952291725 -3.0160043464789896 1.147922634205134 -3.0230761644780646 L 1.0773091276675864 -2.6707511859630446 L 0.9653494893740391 -2.7439942923813754 L 1.0434060846611857 -3.0657767523322437 L 1.0037707382579957 -3.0917058812467624 L 0.8329592601510123 -2.830602929168015 L 0.7291718582292567 -2.8984998234390225 L 1.185738375610677 -3.59640880959004 M 1.0696936827604637 -3.1576911776357344 Q 1.0974792864245557 -3.139514056334835 1.120693701008759 -3.133079635067469 Q 1.1439081155929622 -3.1266452138001024 1.1652473848935594 -3.133398925746414 Q 1.1865866541941565 -3.1401526376927253 1.2075362783667423 -3.160581391184456 Q 1.2284859025393278 -3.1810101446761867 1.2514746147728184 -3.2161507610748914 L 1.2875615467672517 -3.271313356584486 Q 1.3052040468534192 -3.298281736611399 1.31313161418392 -3.321102831192093 Q 1.3210591815144213 -3.3439239257727875 1.3177003735129693 -3.364209244459001 Q 1.3143415655115174 -3.3844945631452137 1.2991464691482992 -3.403187338970268 Q 1.283951372785081 -3.4218801147953215 1.2549399336652205 -3.44085916791832 L 1.2390040727402263 -3.4512842816056004 L 1.0537578218354697 -3.1681162913230154 L 1.0696936827604637 -3.1576911776357344 M 1.753945315332117 -3.1557333706694553 L 1.8398329653131067 -3.062907359845684 L 1.2276830560968843 -2.496513127538617 L 1.1417954061158948 -2.5893391383623885 L 1.753945315332117 -3.1557333706694553 M 2.0643817463315157 -2.778231295366942 L 2.112617421875588 -2.6877460537902853 L 1.7152123673666702 -2.2468209720778556 L 1.7165905295250723 -2.24423567946138 Q 1.7331367325557108 -2.254716073492298 1.7531014871249289 -2.2681254749663116 Q 1.773066241694147 -2.281534876440325 1.799077598343503 -2.297614260667997 Q 1.8250889549928588 -2.313693644895669 1.8584395600305905 -2.333132092956201 Q 1.8917901650683224 -2.3525705410167324 1.9344474932401747 -2.3753102166303663 L 2.202887043250923 -2.5184093874111135 L 2.256175980042469 -2.418444739574045 L 1.5202293485523284 -2.0261279118155926 L 1.4715342856221223 -2.117474917597741 L 1.8564722644347946 -2.5506474243126687 L 1.8546347148902584 -2.554094481134636 Q 1.8359341013458903 -2.542465618638383 1.814461259417061 -2.528252289238635 Q 1.7929884174882318 -2.5140389598388873 1.7633145629655351 -2.4960071792201455 Q 1.7336407084428382 -2.4779753986014037 1.6936114308125438 -2.454976698298333 Q 1.6535821531822492 -2.431977997995263 1.5975674798252713 -2.402117817896552 L 1.3812646642467874 -2.2868115839769128 L 1.328435114841375 -2.3859144676084894 L 2.0643817463315157 -2.778231295366942 M 2.389282811777065 -2.0120335385199035 L 2.409661704744899 -1.882276428796491 Q 2.414282940696713 -1.8528519541008472 2.4175567979657138 -1.8209916685533718 Q 2.4208306552347145 -1.7891313830058961 2.41688289625876 -1.757619712258185 Q 2.412935137282805 -1.7261080415104737 2.399050888008035 -1.6964956694809452 Q 2.385166638733265 -1.6668832974514167 2.3557886037827767 -1.6415101603372453 Q 2.3264105688322885 -1.6161370232230738 2.278823874152222 -1.5965538049426775 Q 2.231237179472156 -1.5769705866622812 2.1598466507023972 -1.565758407631651 L 1.9205919056361793 -1.528182456285756 Q 1.8492013768664206 -1.5169702772551261 1.797661357612802 -1.52098523343556 Q 1.7461213383591834 -1.5250001896159937 1.7106208184479652 -1.5401838802462482 Q 1.675120298536747 -1.5553675708765025 1.6528269149890045 -1.579298095424293 Q 1.630533531441262 -1.6032286199720833 1.6171160266624103 -1.6320130039285603 Q 1.6036985218835589 -1.660797387885037 1.5970480855511235 -1.6921273676675503 Q 1.5903976492186882 -1.7234573474500638 1.5857764132668746 -1.7528818221457074 L 1.5653975202990404 -1.8826389318691201 L 2.389282811777065 -2.0120335385199035 M 1.6773275465982367 -1.739581381560826 Q 1.682630604247859 -1.7058155909264807 1.6947602235975165 -1.6852314704097735 Q 1.706889842947174 -1.6646473498930663 1.7308451929697126 -1.6553115737680328 Q 1.754800542992251 -1.6459757976429994 1.7934240450107128 -1.6470991136308837 Q 1.8320475470291746 -1.648222429618768 1.8899317595451952 -1.657313385589549 L 2.145587031490952 -1.6974651077938319 Q 2.203471244006973 -1.7065560637646129 2.240579586696971 -1.7173267485051673 Q 2.2776879293869694 -1.7280974332457215 2.2976281071890794 -1.744327184315264 Q 2.31756828499119 -1.7605569353848063 2.3228039293963385 -1.783868342692748 Q 2.328039573801487 -1.8071797500006894 2.3227365161518647 -1.8409455406350348 L 2.317736490367935 -1.872781857518846 L 1.6723275208143071 -1.7714176984446373 L 1.6773275465982367 -1.739581381560826" fill="#3f170e" fill-rule="nonzero"></path></g><g><path d=" M -2.325932728160511 0.32272727272727264 Q -2.3295690917968743 0.32272727272727264 -2.3322963645241472 0.3199999999999999 Q -2.3350236372514197 0.3172727272727272 -2.3350236372514197 0.31363636363636355 Q -2.3350236372514197 0.3113636363636363 -2.334569091796874 0.30863636363636354 L -2.221841819069602 0.014545454545454473 Q -2.22002363725142 0.009999999999999898 -2.2168418190696015 0.0072727272727272085 Q -2.2136600008877836 0.004545454545454464 -2.2072963645241472 0.004545454545454464 L -2.176387273615056 0.004545454545454464 Q -2.1700236372514197 0.004545454545454464 -2.1668418190696017 0.0072727272727272085 Q -2.1636600008877833 0.009999999999999898 -2.161841819069602 0.014545454545454473 L -2.0495690917968745 0.30863636363636354 Q -2.0486600008877835 0.3113636363636363 -2.0486600008877835 0.31363636363636355 Q -2.0486600008877835 0.3172727272727272 -2.051387273615056 0.3199999999999999 Q -2.054114546342329 0.32272727272727264 -2.057750909978693 0.32272727272727264 L -2.080932728160511 0.32272727272727264 Q -2.086387273615056 0.32272727272727264 -2.088887273615056 0.3199999999999999 Q -2.091387273615056 0.3172727272727272 -2.092296364524147 0.3149999999999999 L -2.1172963645241474 0.2504545454545454 L -2.2663872736150563 0.2504545454545454 L -2.2913872736150562 0.3149999999999999 Q -2.2918418190696017 0.3172727272727272 -2.2945690917968746 0.3199999999999999 Q -2.297296364524147 0.32272727272727264 -2.3027509099786925 0.32272727272727264 L -2.325932728160511 0.32272727272727264 M -2.253205455433238 0.21136363636363628 L -2.130478182705965 0.21136363636363628 L -2.1918418190696016 0.04999999999999993 L -2.253205455433238 0.21136363636363628 M -1.9541121049360788 0.32272727272727264 Q -1.9600211958451697 0.32272727272727264 -1.9634302867542606 0.31954545454545447 Q -1.9668393776633515 0.3163636363636363 -1.968203014026988 0.31045454545454537 L -2.0268393776633515 0.018636363636363562 Q -2.027293923117897 0.016818181818181732 -2.027293923117897 0.015454545454545388 Q -2.027293923117897 0.014090909090908987 -2.027293923117897 0.013636363636363558 Q -2.027293923117897 0.009999999999999898 -2.024566650390624 0.0072727272727272085 Q -2.0218393776633516 0.004545454545454464 -2.0182030140269878 0.004545454545454464 L -1.9945666503906243 0.004545454545454464 Q -1.9850211958451698 0.004545454545454464 -1.9836575594815333 0.012272727272727213 L -1.937293923117897 0.24681818181818171 L -1.8882030140269879 0.08590909090909082 Q -1.8868393776633516 0.08181818181818173 -1.8834302867542607 0.07840909090909082 Q -1.8800211958451698 0.0749999999999999 -1.8736575594815335 0.0749999999999999 L -1.8568393776633516 0.0749999999999999 Q -1.8500211958451698 0.0749999999999999 -1.8468393776633516 0.07840909090909082 Q -1.8436575594815334 0.08181818181818173 -1.8427484685724425 0.08590909090909082 L -1.793203014026988 0.24681818181818171 L -1.747293923117897 0.012272727272727213 Q -1.7459302867542608 0.004545454545454464 -1.7359302867542608 0.004545454545454464 L -1.712293923117897 0.004545454545454464 Q -1.7086575594815334 0.004545454545454464 -1.7059302867542607 0.0072727272727272085 Q -1.7032030140269878 0.009999999999999898 -1.7032030140269878 0.013636363636363558 Q -1.7032030140269878 0.014090909090908987 -1.7034302867542608 0.015454545454545388 Q -1.7036575594815333 0.016818181818181732 -1.7036575594815333 0.018636363636363562 L -1.7622939231178971 0.31045454545454537 Q -1.7636575594815334 0.3163636363636363 -1.7670666503906243 0.31954545454545447 Q -1.7704757412997152 0.32272727272727264 -1.776384832208806 0.32272727272727264 L -1.7941121049360789 0.32272727272727264 Q -1.8004757412997152 0.32272727272727264 -1.8041121049360789 0.31954545454545447 Q -1.8077484685724425 0.3163636363636363 -1.8091121049360788 0.3113636363636363 L -1.8654757412997152 0.1381818181818181 L -1.921384832208806 0.3113636363636363 Q -1.923203014026988 0.3163636363636363 -1.926612104936079 0.31954545454545447 Q -1.9300211958451698 0.32272727272727264 -1.9363848322088062 0.32272727272727264 L -1.9541121049360788 0.32272727272727264 M -1.6727267178622154 0.32272727272727264 Q -1.6763630814985788 0.32272727272727264 -1.6790903542258517 0.3199999999999999 Q -1.6818176269531244 0.3172727272727272 -1.6818176269531244 0.31363636363636355 Q -1.6818176269531244 0.3113636363636363 -1.681363081498579 0.30863636363636354 L -1.5686358087713062 0.014545454545454473 Q -1.5668176269531244 0.009999999999999898 -1.5636358087713063 0.0072727272727272085 Q -1.560453990589488 0.004545454545454464 -1.5540903542258517 0.004545454545454464 L -1.5231812633167607 0.004545454545454464 Q -1.5168176269531244 0.004545454545454464 -1.5136358087713062 0.0072727272727272085 Q -1.510453990589488 0.009999999999999898 -1.508635808771306 0.014545454545454473 L -1.396363081498579 0.30863636363636354 Q -1.395453990589488 0.3113636363636363 -1.395453990589488 0.31363636363636355 Q -1.395453990589488 0.3172727272727272 -1.3981812633167607 0.3199999999999999 Q -1.4009085360440334 0.32272727272727264 -1.404544899680397 0.32272727272727264 L -1.4277267178622153 0.32272727272727264 Q -1.4331812633167607 0.32272727272727264 -1.4356812633167606 0.3199999999999999 Q -1.4381812633167608 0.3172727272727272 -1.4390903542258515 0.3149999999999999 L -1.4640903542258517 0.2504545454545454 L -1.6131812633167608 0.2504545454545454 L -1.6381812633167607 0.3149999999999999 Q -1.6386358087713062 0.3172727272727272 -1.641363081498579 0.3199999999999999 Q -1.6440903542258516 0.32272727272727264 -1.6495448996803972 0.32272727272727264 L -1.6727267178622154 0.32272727272727264 M -1.5999994451349426 0.21136363636363628 L -1.4772721724076698 0.21136363636363628 L -1.5386358087713061 0.04999999999999993 L -1.5999994451349426 0.21136363636363628 M -1.3318253950639198 0.32272727272727264 Q -1.33682539506392 0.32272727272727264 -1.3395526677911926 0.3197727272727272 Q -1.3422799405184653 0.3168181818181817 -1.3422799405184653 0.3122727272727272 L -1.3422799405184653 0.015454545454545388 Q -1.3422799405184653 0.010454545454545383 -1.3395526677911926 0.007499999999999896 Q -1.33682539506392 0.004545454545454464 -1.3318253950639198 0.004545454545454464 L -1.3090981223366471 0.004545454545454464 Q -1.3040981223366472 0.004545454545454464 -1.3011435768821018 0.007499999999999896 Q -1.2981890314275562 0.010454545454545383 -1.2981890314275562 0.015454545454545388 L -1.2981890314275562 0.1281818181818181 L -1.1768253950639198 0.011818181818181728 Q -1.175007213245738 0.009999999999999898 -1.1706890314275562 0.0072727272727272085 Q -1.1663708496093745 0.004545454545454464 -1.1590981223366472 0.004545454545454464 L -1.1345526677911926 0.004545454545454464 Q -1.130916304154829 0.004545454545454464 -1.1281890314275562 0.0072727272727272085 Q -1.1254617587002835 0.009999999999999898 -1.1254617587002835 0.013636363636363558 Q -1.1254617587002835 0.017272727272727162 -1.1272799405184655 0.019545454545454477 L -1.2677344859730109 0.15681818181818172 L -1.1181890314275562 0.3072727272727272 Q -1.115916304154829 0.3099999999999999 -1.115916304154829 0.31363636363636355 Q -1.115916304154829 0.3172727272727272 -1.1186435768821017 0.3199999999999999 Q -1.1213708496093744 0.32272727272727264 -1.125007213245738 0.32272727272727264 L -1.1504617587002834 0.32272727272727264 Q -1.1581890314275562 0.32272727272727264 -1.1622799405184654 0.3197727272727272 Q -1.1663708496093745 0.3168181818181817 -1.1681890314275563 0.3149999999999999 L -1.2981890314275562 0.18727272727272717 L -1.2981890314275562 0.3122727272727272 Q -1.2981890314275562 0.3168181818181817 -1.3011435768821018 0.3197727272727272 Q -1.3040981223366472 0.32272727272727264 -1.3090981223366471 0.32272727272727264 L -1.3318253950639198 0.32272727272727264 M -1.0540921297940335 0.32272727272727264 Q -1.0590921297940337 0.32272727272727264 -1.0618194025213064 0.3197727272727272 Q -1.064546675248579 0.3168181818181817 -1.064546675248579 0.3122727272727272 L -1.064546675248579 0.015454545454545388 Q -1.064546675248579 0.010454545454545383 -1.0618194025213064 0.007499999999999896 Q -1.0590921297940337 0.004545454545454464 -1.0540921297940335 0.004545454545454464 L -0.8663648570667608 0.004545454545454464 Q -0.8613648570667609 0.004545454545454464 -0.8586375843394881 0.007499999999999896 Q -0.8559103116122154 0.010454545454545383 -0.8559103116122154 0.015454545454545388 L -0.8559103116122154 0.03272727272727266 Q -0.8559103116122154 0.037727272727272665 -0.8586375843394881 0.040454545454545354 Q -0.8613648570667609 0.0431818181818181 -0.8663648570667608 0.0431818181818181 L -1.0209103116122153 0.0431818181818181 L -1.0209103116122153 0.14272727272727265 L -0.8763648570667608 0.14272727272727265 Q -0.8713648570667609 0.14272727272727265 -0.8686375843394881 0.1456818181818181 Q -0.8659103116122154 0.14863636363636354 -0.8659103116122154 0.15363636363636354 L -0.8659103116122154 0.17045454545454536 Q -0.8659103116122154 0.1749999999999999 -0.8686375843394881 0.17795454545454537 Q -0.8713648570667609 0.18090909090909083 -0.8763648570667608 0.18090909090909083 L -1.0209103116122153 0.18090909090909083 L -1.0209103116122153 0.284090909090909 L -0.8627284934303973 0.284090909090909 Q -0.8577284934303973 0.284090909090909 -0.8550012207031246 0.28681818181818175 Q -0.8522739479758518 0.28954545454545444 -0.8522739479758518 0.29454545454545444 L -0.8522739479758518 0.3122727272727272 Q -0.8522739479758518 0.3168181818181817 -0.8550012207031246 0.3197727272727272 Q -0.8577284934303973 0.32272727272727264 -0.8627284934303973 0.32272727272727264 L -1.0540921297940335 0.32272727272727264 M -0.7740839177911927 0.32272727272727264 Q -0.7790839177911927 0.32272727272727264 -0.7818111905184655 0.3197727272727272 Q -0.7845384632457382 0.3168181818181817 -0.7845384632457382 0.3122727272727272 L -0.7845384632457382 0.015454545454545388 Q -0.7845384632457382 0.010454545454545383 -0.7818111905184655 0.007499999999999896 Q -0.7790839177911927 0.004545454545454464 -0.7740839177911927 0.004545454545454464 L -0.7531748268821018 0.004545454545454464 Q -0.7477202814275563 0.004545454545454464 -0.7449930087002836 0.007045454545454466 Q -0.7422657359730109 0.009545454545454468 -0.7418111905184654 0.010909090909090813 L -0.5909020996093746 0.24272727272727262 L -0.5909020996093746 0.015454545454545388 Q -0.5909020996093746 0.010454545454545383 -0.5881748268821019 0.007499999999999896 Q -0.5854475541548291 0.004545454545454464 -0.5804475541548291 0.004545454545454464 L -0.5586293723366473 0.004545454545454464 Q -0.5536293723366472 0.004545454545454464 -0.5506748268821018 0.007499999999999896 Q -0.5477202814275564 0.010454545454545383 -0.5477202814275564 0.015454545454545388 L -0.5477202814275564 0.3118181818181817 Q -0.5477202814275564 0.3163636363636363 -0.5506748268821018 0.31954545454545447 Q -0.5536293723366472 0.32272727272727264 -0.5581748268821018 0.32272727272727264 L -0.5799930087002836 0.32272727272727264 Q -0.5849930087002836 0.32272727272727264 -0.5874930087002836 0.3199999999999999 Q -0.5899930087002836 0.3172727272727272 -0.5909020996093746 0.3163636363636363 L -0.74135664506392 0.08681818181818174 L -0.74135664506392 0.3122727272727272 Q -0.74135664506392 0.3168181818181817 -0.7443111905184654 0.3197727272727272 Q -0.7472657359730109 0.32272727272727264 -0.7522657359730109 0.32272727272727264 L -0.7740839177911927 0.32272727272727264 M -0.2658972167968746 0.32272727272727264 Q -0.27044267134232913 0.32272727272727264 -0.2733972167968746 0.3197727272727272 Q -0.2763517622514201 0.3168181818181817 -0.2763517622514201 0.3122727272727272 L -0.2763517622514201 0.2049999999999999 L -0.3858972167968746 0.019545454545454477 Q -0.3863517622514201 0.018181818181818077 -0.3868063077059655 0.016818181818181732 Q -0.387260853160511 0.015454545454545388 -0.387260853160511 0.013636363636363558 Q -0.387260853160511 0.009999999999999898 -0.38453358043323826 0.0072727272727272085 Q -0.3818063077059655 0.004545454545454464 -0.3781699440696019 0.004545454545454464 L -0.35453358043323824 0.004545454545454464 Q -0.35044267134232915 0.004545454545454464 -0.347260853160511 0.006590909090908981 Q -0.3440790349786928 0.008636363636363553 -0.34271539861505645 0.012272727272727213 L -0.2540790349786928 0.15954545454545446 L -0.16544267134232918 0.012272727272727213 Q -0.1631699440696019 0.008636363636363553 -0.16021539861505643 0.006590909090908981 Q -0.157260853160511 0.004545454545454464 -0.15316994406960188 0.004545454545454464 L -0.1299881258877837 0.004545454545454464 Q -0.1258972167968746 0.004545454545454464 -0.12316994406960191 0.0072727272727272085 Q -0.12044267134232917 0.009999999999999898 -0.12044267134232917 0.013636363636363558 Q -0.12044267134232917 0.015454545454545388 -0.1208972167968746 0.016818181818181732 Q -0.12135176225142008 0.018181818181818077 -0.122260853160511 0.019545454545454477 L -0.23135176225142007 0.2049999999999999 L -0.23135176225142007 0.3122727272727272 Q -0.23135176225142007 0.3168181818181817 -0.23430630770596553 0.3197727272727272 Q -0.237260853160511 0.32272727272727264 -0.242260853160511 0.32272727272727264 L -0.2658972167968746 0.32272727272727264 M 0.0381679465553981 0.32727272727272716 Q -0.0009229625355109822 0.32727272727272716 -0.028650235262783708 0.3138636363636363 Q -0.05637750799005644 0.30045454545454536 -0.07137750799005643 0.2724999999999999 Q -0.08637750799005645 0.24454545454545445 -0.08819568980823826 0.2022727272727272 Q -0.08865023526278372 0.1822727272727272 -0.08865023526278372 0.16386363636363627 Q -0.08865023526278372 0.14545454545454536 -0.08819568980823826 0.12545454545454537 Q -0.08637750799005645 0.08363636363636354 -0.07069568980823826 0.05568181818181811 Q -0.05501387162642008 0.027727272727272656 -0.02705932617187462 0.0138636363636363 Q 0.0008952192826708338 -1.1102230246251565e-16 0.0381679465553981 -1.1102230246251565e-16 Q 0.07498612837357993 -1.1102230246251565e-16 0.10294067382812538 0.0138636363636363 Q 0.13089521928267084 0.027727272727272656 0.14680431019176177 0.05568181818181811 Q 0.16271340110085264 0.08363636363636354 0.16407703746448904 0.12545454545454537 Q 0.1649861283735799 0.14545454545454536 0.1649861283735799 0.16386363636363627 Q 0.1649861283735799 0.1822727272727272 0.16407703746448904 0.2022727272727272 Q 0.16271340110085264 0.24454545454545445 0.14748612837357994 0.2724999999999999 Q 0.13225885564630718 0.30045454545454536 0.10453158291903447 0.3138636363636363 Q 0.07680431019176173 0.32727272727272716 0.0381679465553981 0.32727272727272716 M 0.0381679465553981 0.2886363636363636 Q 0.07271340110085264 0.2886363636363636 0.0947588556463072 0.26772727272727265 Q 0.11680431019176174 0.24681818181818171 0.11862249200994357 0.1999999999999999 Q 0.11953158291903446 0.17954545454545445 0.11953158291903446 0.1634090909090908 Q 0.11953158291903446 0.1472727272727272 0.11862249200994357 0.12727272727272718 Q 0.11771340110085265 0.09590909090909083 0.10703158291903447 0.07636363636363627 Q 0.09634976473721629 0.05681818181818171 0.07862249200994356 0.04772727272727262 Q 0.06089521928267083 0.038636363636363524 0.0381679465553981 0.038636363636363524 Q 0.01544067382812539 0.038636363636363524 -0.0022865988991473546 0.04772727272727262 Q -0.020013871626420085 0.05681818181818171 -0.030695689808238266 0.07636363636363627 Q -0.04137750799005645 0.09590909090909083 -0.042741144353692806 0.12727272727272718 Q -0.04319568980823826 0.1472727272727272 -0.04319568980823826 0.1634090909090908 Q -0.04319568980823826 0.17954545454545445 -0.042741144353692806 0.1999999999999999 Q -0.04092296253551099 0.24681818181818171 -0.018650235262783713 0.26772727272727265 Q 0.003622492009943565 0.2886363636363636 0.0381679465553981 0.2886363636363636 M 0.3558961070667617 0.32727272727272716 Q 0.3177142888849436 0.32727272727272716 0.29021428888494355 0.31363636363636355 Q 0.2627142888849435 0.29999999999999993 0.24794156161221625 0.2720454545454545 Q 0.23316883433948898 0.244090909090909 0.23316883433948898 0.1999999999999999 L 0.23316883433948898 0.015454545454545388 Q 0.23316883433948898 0.010454545454545383 0.23589610706676173 0.007499999999999896 Q 0.23862337979403445 0.004545454545454464 0.24362337979403445 0.004545454545454464 L 0.2668051979758526 0.004545454545454464 Q 0.2718051979758526 0.004545454545454464 0.2747597434303981 0.007499999999999896 Q 0.27771428888494354 0.010454545454545383 0.27771428888494354 0.015454545454545388 L 0.27771428888494354 0.20090909090909082 Q 0.27771428888494354 0.24545454545454537 0.29862337979403447 0.26681818181818173 Q 0.31953247070312535 0.2881818181818181 0.3558961070667617 0.2881818181818181 Q 0.39180519797585267 0.2881818181818181 0.4129415616122163 0.26681818181818173 Q 0.4340779252485799 0.24545454545454537 0.4340779252485799 0.20090909090909082 L 0.4340779252485799 0.015454545454545388 Q 0.4340779252485799 0.010454545454545383 0.43703247070312534 0.007499999999999896 Q 0.4399870161576708 0.004545454545454464 0.44453247070312535 0.004545454545454464 L 0.46816883433948897 0.004545454545454464 Q 0.47271428888494355 0.004545454545454464 0.475668834339489 0.007499999999999896 Q 0.47862337979403446 0.010454545454545383 0.47862337979403446 0.015454545454545388 L 0.47862337979403446 0.1999999999999999 Q 0.47862337979403446 0.244090909090909 0.4638506525213072 0.2720454545454545 Q 0.4490779252485799 0.29999999999999993 0.42180519797585264 0.31363636363636355 Q 0.39453247070312536 0.32727272727272716 0.3558961070667617 0.32727272727272716 M 0.5695273659446027 0.32272727272727264 Q 0.5645273659446027 0.32272727272727264 0.5618000932173299 0.3197727272727272 Q 0.5590728204900572 0.3168181818181817 0.5590728204900572 0.3122727272727272 L 0.5590728204900572 0.015454545454545388 Q 0.5590728204900572 0.010454545454545383 0.5618000932173299 0.007499999999999896 Q 0.5645273659446027 0.004545454545454464 0.5695273659446027 0.004545454545454464 L 0.6804364568536936 0.004545454545454464 Q 0.73180009321733 0.004545454545454464 0.76180009321733 0.02863636363636357 Q 0.7918000932173299 0.05272727272727262 0.7918000932173299 0.09999999999999992 Q 0.7918000932173299 0.13499999999999993 0.77430009321733 0.15704545454545446 Q 0.75680009321733 0.179090909090909 0.72680009321733 0.18772727272727263 L 0.79680009321733 0.30863636363636354 Q 0.7981637295809663 0.3113636363636363 0.7981637295809663 0.31363636363636355 Q 0.7981637295809663 0.3172727272727272 0.7952091841264208 0.3199999999999999 Q 0.7922546386718754 0.32272727272727264 0.7886182750355117 0.32272727272727264 L 0.76680009321733 0.32272727272727264 Q 0.7590728204900572 0.32272727272727264 0.7554364568536935 0.31863636363636355 Q 0.75180009321733 0.31454545454545446 0.7490728204900572 0.31045454545454537 L 0.6831637295809663 0.19499999999999992 L 0.6036182750355118 0.19499999999999992 L 0.6036182750355118 0.3122727272727272 Q 0.6036182750355118 0.3168181818181817 0.6006637295809664 0.3197727272727272 Q 0.5977091841264208 0.32272727272727264 0.5927091841264209 0.32272727272727264 L 0.5695273659446027 0.32272727272727264 M 0.6036182750355118 0.1563636363636363 L 0.6786182750355118 0.1563636363636363 Q 0.7127091841264208 0.1563636363636363 0.7295273659446027 0.14204545454545445 Q 0.7463455477627845 0.12772727272727263 0.7463455477627845 0.09954545454545446 Q 0.7463455477627845 0.07181818181818173 0.7297546386718754 0.0572727272727272 Q 0.7131637295809663 0.042727272727272614 0.6786182750355118 0.042727272727272614 L 0.6036182750355118 0.042727272727272614 L 0.6036182750355118 0.1563636363636363 M 1.079538463245739 0.32727272727272716 Q 1.0399930087002844 0.32727272727272716 1.0131748268821026 0.3149999999999999 Q 0.9863566450639207 0.3027272727272726 0.972038463245739 0.28340909090909083 Q 0.9577202814275572 0.264090909090909 0.9568111905184662 0.24272727272727262 Q 0.9568111905184662 0.23909090909090902 0.9597657359730117 0.23613636363636353 Q 0.9627202814275572 0.2331818181818181 0.9668111905184662 0.2331818181818181 L 0.9899930087002844 0.2331818181818181 Q 0.9954475541548299 0.2331818181818181 0.9981748268821026 0.23590909090909082 Q 1.0009020996093754 0.23863636363636354 1.0018111905184663 0.2422727272727272 Q 1.004538463245739 0.25318181818181806 1.0131748268821026 0.2638636363636363 Q 1.0218111905184661 0.2745454545454545 1.03794755415483 0.281590909090909 Q 1.0540839177911936 0.2886363636363636 1.079538463245739 0.2886363636363636 Q 1.118629372336648 0.2886363636363636 1.1370384632457389 0.27477272727272717 Q 1.15544755415483 0.2609090909090908 1.15544755415483 0.23772727272727262 Q 1.15544755415483 0.22181818181818175 1.1456748268821026 0.21204545454545445 Q 1.1359020996093754 0.2022727272727272 1.1159020996093754 0.19454545454545447 Q 1.0959020996093753 0.18681818181818174 1.0640839177911936 0.17772727272727265 Q 1.0309020996093754 0.1681818181818181 1.0090839177911934 0.15681818181818172 Q 0.9872657359730117 0.14545454545454536 0.9765839177911935 0.12863636363636355 Q 0.9659020996093753 0.11181818181818173 0.9659020996093753 0.08590909090909082 Q 0.9659020996093753 0.06136363636363629 0.9790839177911935 0.04204545454545444 Q 0.9922657359730117 0.02272727272727265 1.0172657359730117 0.011363636363636298 Q 1.0422657359730116 -1.1102230246251565e-16 1.0772657359730118 -1.1102230246251565e-16 Q 1.1054475541548299 -1.1102230246251565e-16 1.1265839177911936 0.007499999999999896 Q 1.147720281427557 0.014999999999999902 1.1618111905184663 0.027499999999999913 Q 1.1759020996093754 0.039999999999999925 1.1831748268821025 0.05431818181818171 Q 1.1904475541548298 0.06863636363636355 1.1909020996093753 0.08227272727272719 Q 1.1909020996093753 0.08545454545454537 1.1886293723366481 0.08840909090909083 Q 1.1863566450639207 0.09136363636363629 1.1813566450639208 0.09136363636363629 L 1.1572657359730116 0.09136363636363629 Q 1.1540839177911935 0.09136363636363629 1.1506748268821025 0.08954545454545446 Q 1.1472657359730116 0.08772727272727265 1.14544755415483 0.08272727272727265 Q 1.1427202814275572 0.06409090909090903 1.124538463245739 0.05136363636363628 Q 1.1063566450639208 0.038636363636363524 1.0772657359730118 0.038636363636363524 Q 1.0477202814275572 0.038636363636363524 1.0293111905184662 0.04999999999999993 Q 1.0109020996093754 0.06136363636363629 1.0109020996093754 0.08545454545454537 Q 1.0109020996093754 0.10090909090909081 1.019538463245739 0.11113636363636356 Q 1.0281748268821027 0.12136363636363628 1.0468111905184663 0.129090909090909 Q 1.0654475541548298 0.13681818181818173 1.0954475541548299 0.14545454545454536 Q 1.1318111905184662 0.15545454545454537 1.1549930087002844 0.166590909090909 Q 1.1781748268821026 0.17772727272727265 1.1893111905184663 0.19431818181818172 Q 1.2004475541548298 0.21090909090909082 1.2004475541548298 0.23681818181818173 Q 1.2004475541548298 0.2654545454545454 1.18544755415483 0.2856818181818181 Q 1.1704475541548298 0.3059090909090908 1.1434020996093754 0.316590909090909 Q 1.1163566450639208 0.32727272727272716 1.079538463245739 0.32727272727272716 M 1.2749972256747164 0.32272727272727264 Q 1.2699972256747163 0.32272727272727264 1.2672699529474436 0.3197727272727272 Q 1.264542680220171 0.3168181818181817 1.264542680220171 0.3122727272727272 L 1.264542680220171 0.015454545454545388 Q 1.264542680220171 0.010454545454545383 1.2672699529474436 0.007499999999999896 Q 1.2699972256747163 0.004545454545454464 1.2749972256747164 0.004545454545454464 L 1.3904517711292619 0.004545454545454464 Q 1.4240881347656256 0.004545454545454464 1.4488608620383527 0.015454545454545388 Q 1.47363358931108 0.026363636363636256 1.4872699529474436 0.04795454545454536 Q 1.5009063165838072 0.06954545454545447 1.5009063165838072 0.10181818181818172 Q 1.5009063165838072 0.134090909090909 1.4872699529474436 0.15545454545454537 Q 1.47363358931108 0.17681818181818174 1.4488608620383527 0.18772727272727263 Q 1.4240881347656256 0.19863636363636356 1.3904517711292619 0.19863636363636356 L 1.3099972256747163 0.19863636363636356 L 1.3099972256747163 0.3122727272727272 Q 1.3099972256747163 0.3168181818181817 1.307042680220171 0.3197727272727272 Q 1.3040881347656255 0.32272727272727264 1.2990881347656256 0.32272727272727264 L 1.2749972256747164 0.32272727272727264 M 1.3095426802201708 0.16045454545454538 L 1.3881790438565345 0.16045454545454538 Q 1.4218154074928981 0.16045454545454538 1.43863358931108 0.14545454545454536 Q 1.4554517711292618 0.13045454545454538 1.4554517711292618 0.10181818181818172 Q 1.4554517711292618 0.07363636363636356 1.4390881347656255 0.05818181818181811 Q 1.4227244984019891 0.042727272727272614 1.3881790438565345 0.042727272727272614 L 1.3095426802201708 0.042727272727272614 L 1.3095426802201708 0.16045454545454538 M 1.5713739568536937 0.32272727272727264 Q 1.5663739568536936 0.32272727272727264 1.563646684126421 0.3197727272727272 Q 1.5609194113991482 0.3168181818181817 1.5609194113991482 0.3122727272727272 L 1.5609194113991482 0.014999999999999902 Q 1.5609194113991482 0.010454545454545383 1.563646684126421 0.007499999999999896 Q 1.5663739568536936 0.004545454545454464 1.5713739568536937 0.004545454545454464 L 1.595464865944603 0.004545454545454464 Q 1.6004648659446028 0.004545454545454464 1.6031921386718755 0.007499999999999896 Q 1.6059194113991482 0.010454545454545383 1.6059194113991482 0.014999999999999902 L 1.6059194113991482 0.3122727272727272 Q 1.6059194113991482 0.3168181818181817 1.6031921386718755 0.3197727272727272 Q 1.6004648659446028 0.32272727272727264 1.595464865944603 0.32272727272727264 L 1.5713739568536937 0.32272727272727264 M 1.7000149813565346 0.32272727272727264 Q 1.6950149813565345 0.32272727272727264 1.6922877086292618 0.3197727272727272 Q 1.6895604359019891 0.3168181818181817 1.6895604359019891 0.3122727272727272 L 1.6895604359019891 0.015454545454545388 Q 1.6895604359019891 0.010454545454545383 1.6922877086292618 0.007499999999999896 Q 1.6950149813565345 0.004545454545454464 1.7000149813565346 0.004545454545454464 L 1.8109240722656255 0.004545454545454464 Q 1.8622877086292617 0.004545454545454464 1.8922877086292618 0.02863636363636357 Q 1.9222877086292618 0.05272727272727262 1.9222877086292618 0.09999999999999992 Q 1.9222877086292618 0.13499999999999993 1.9047877086292617 0.15704545454545446 Q 1.8872877086292619 0.179090909090909 1.8572877086292618 0.18772727272727263 L 1.927287708629262 0.30863636363636354 Q 1.9286513449928981 0.3113636363636363 1.9286513449928981 0.31363636363636355 Q 1.9286513449928981 0.3172727272727272 1.9256967995383527 0.3199999999999999 Q 1.9227422540838073 0.32272727272727264 1.9191058904474436 0.32272727272727264 L 1.8972877086292619 0.32272727272727264 Q 1.889560435901989 0.32272727272727264 1.8859240722656254 0.31863636363636355 Q 1.8822877086292618 0.31454545454545446 1.879560435901989 0.31045454545454537 L 1.8136513449928982 0.19499999999999992 L 1.7341058904474436 0.19499999999999992 L 1.7341058904474436 0.3122727272727272 Q 1.7341058904474436 0.3168181818181817 1.7311513449928981 0.3197727272727272 Q 1.7281967995383527 0.32272727272727264 1.7231967995383528 0.32272727272727264 L 1.7000149813565346 0.32272727272727264 M 1.7341058904474436 0.1563636363636363 L 1.8091058904474437 0.1563636363636363 Q 1.8431967995383527 0.1563636363636363 1.8600149813565345 0.14204545454545445 Q 1.8768331631747164 0.12772727272727263 1.8768331631747164 0.09954545454545446 Q 1.8768331631747164 0.07181818181818173 1.8602422540838073 0.0572727272727272 Q 1.8436513449928982 0.042727272727272614 1.8091058904474437 0.042727272727272614 L 1.7341058904474436 0.042727272727272614 L 1.7341058904474436 0.1563636363636363 M 2.0023010253906253 0.32272727272727264 Q 1.9973010253906254 0.32272727272727264 1.9945737526633527 0.3197727272727272 Q 1.99184647993608 0.3168181818181817 1.99184647993608 0.3122727272727272 L 1.99184647993608 0.014999999999999902 Q 1.99184647993608 0.010454545454545383 1.9945737526633527 0.007499999999999896 Q 1.9973010253906254 0.004545454545454464 2.0023010253906253 0.004545454545454464 L 2.0263919344815347 0.004545454545454464 Q 2.0313919344815345 0.004545454545454464 2.0341192072088075 0.007499999999999896 Q 2.03684647993608 0.010454545454545383 2.03684647993608 0.014999999999999902 L 2.03684647993608 0.3122727272727272 Q 2.03684647993608 0.3168181818181817 2.0341192072088075 0.3197727272727272 Q 2.0313919344815345 0.32272727272727264 2.0263919344815347 0.32272727272727264 L 2.0023010253906253 0.32272727272727264 M 2.200487504438921 0.32272727272727264 Q 2.1959420498934668 0.32272727272727264 2.192987504438921 0.3197727272727272 Q 2.1900329589843754 0.3168181818181817 2.1900329589843754 0.3122727272727272 L 2.1900329589843754 0.04499999999999993 L 2.1027602317116485 0.04499999999999993 Q 2.0982147771661936 0.04499999999999993 2.095260231711648 0.04204545454545444 Q 2.092305686257103 0.03909090909090901 2.092305686257103 0.034545454545454435 L 2.092305686257103 0.015454545454545388 Q 2.092305686257103 0.010454545454545383 2.095260231711648 0.007499999999999896 Q 2.0982147771661936 0.004545454545454464 2.1027602317116485 0.004545454545454464 L 2.3218511408025573 0.004545454545454464 Q 2.3268511408025576 0.004545454545454464 2.329805686257103 0.007499999999999896 Q 2.3327602317116485 0.010454545454545383 2.3327602317116485 0.015454545454545388 L 2.3327602317116485 0.034545454545454435 Q 2.3327602317116485 0.03909090909090901 2.329805686257103 0.04204545454545444 Q 2.3268511408025576 0.04499999999999993 2.3218511408025573 0.04499999999999993 L 2.235032958984376 0.04499999999999993 L 2.235032958984376 0.3122727272727272 Q 2.235032958984376 0.3168181818181817 2.2320784135298304 0.3197727272727272 Q 2.229123868075285 0.32272727272727264 2.2241238680752846 0.32272727272727264 L 2.200487504438921 0.32272727272727264 M -2.2611278187144883 0.7863636363636363 Q -2.266127818714488 0.7863636363636363 -2.2688550914417607 0.7834090909090908 Q -2.2715823641690336 0.7804545454545454 -2.2715823641690336 0.7759090909090908 L -2.2715823641690336 0.479090909090909 Q -2.2715823641690336 0.474090909090909 -2.2688550914417607 0.4711363636363635 Q -2.266127818714488 0.4681818181818181 -2.2611278187144883 0.4681818181818181 L -2.0734005459872153 0.4681818181818181 Q -2.0684005459872155 0.4681818181818181 -2.0656732732599425 0.4711363636363635 Q -2.06294600053267 0.474090909090909 -2.06294600053267 0.479090909090909 L -2.06294600053267 0.4963636363636363 Q -2.06294600053267 0.5013636363636362 -2.0656732732599425 0.5040909090909089 Q -2.0684005459872155 0.5068181818181817 -2.0734005459872153 0.5068181818181817 L -2.22794600053267 0.5068181818181817 L -2.22794600053267 0.6063636363636362 L -2.0834005459872156 0.6063636363636362 Q -2.0784005459872152 0.6063636363636362 -2.0756732732599428 0.6093181818181818 Q -2.07294600053267 0.6122727272727272 -2.07294600053267 0.6172727272727272 L -2.07294600053267 0.634090909090909 Q -2.07294600053267 0.6386363636363636 -2.0756732732599428 0.641590909090909 Q -2.0784005459872152 0.6445454545454544 -2.0834005459872156 0.6445454545454544 L -2.22794600053267 0.6445454545454544 L -2.22794600053267 0.7477272727272726 L -2.069764182350852 0.7477272727272726 Q -2.0647641823508516 0.7477272727272726 -2.062036909623579 0.7504545454545454 Q -2.059309636896306 0.7531818181818181 -2.059309636896306 0.7581818181818181 L -2.059309636896306 0.7759090909090908 Q -2.059309636896306 0.7804545454545454 -2.062036909623579 0.7834090909090908 Q -2.0647641823508516 0.7863636363636363 -2.069764182350852 0.7863636363636363 L -2.2611278187144883 0.7863636363636363 M -1.981119606711647 0.7863636363636363 Q -1.9861196067116471 0.7863636363636363 -1.9888468794389198 0.7834090909090908 Q -1.9915741521661925 0.7804545454545454 -1.9915741521661925 0.7759090909090908 L -1.9915741521661925 0.479090909090909 Q -1.9915741521661925 0.474090909090909 -1.9888468794389198 0.4711363636363635 Q -1.9861196067116471 0.4681818181818181 -1.981119606711647 0.4681818181818181 L -1.9602105158025562 0.4681818181818181 Q -1.9547559703480106 0.4681818181818181 -1.952028697620738 0.4706818181818181 Q -1.9493014248934653 0.4731818181818181 -1.9488468794389198 0.47454545454545444 L -1.7979377885298289 0.7063636363636363 L -1.7979377885298289 0.479090909090909 Q -1.7979377885298289 0.474090909090909 -1.7952105158025562 0.4711363636363635 Q -1.7924832430752833 0.4681818181818181 -1.7874832430752834 0.4681818181818181 L -1.7656650612571017 0.4681818181818181 Q -1.7606650612571015 0.4681818181818181 -1.757710515802556 0.4711363636363635 Q -1.7547559703480107 0.474090909090909 -1.7547559703480107 0.479090909090909 L -1.7547559703480107 0.7754545454545454 Q -1.7547559703480107 0.7799999999999999 -1.757710515802556 0.7831818181818181 Q -1.7606650612571015 0.7863636363636363 -1.7652105158025562 0.7863636363636363 L -1.787028697620738 0.7863636363636363 Q -1.792028697620738 0.7863636363636363 -1.794528697620738 0.7836363636363636 Q -1.797028697620738 0.7809090909090908 -1.7979377885298289 0.7799999999999999 L -1.9483923339843743 0.5504545454545453 L -1.9483923339843743 0.7759090909090908 Q -1.9483923339843743 0.7804545454545454 -1.9513468794389197 0.7834090909090908 Q -1.9543014248934651 0.7863636363636363 -1.9593014248934653 0.7863636363636363 L -1.981119606711647 0.7863636363636363 M -1.6606617320667607 0.7863636363636363 Q -1.6656617320667608 0.7863636363636363 -1.6683890047940335 0.7834090909090908 Q -1.6711162775213062 0.7804545454545454 -1.6711162775213062 0.7759090909090908 L -1.6711162775213062 0.479090909090909 Q -1.6711162775213062 0.474090909090909 -1.6683890047940335 0.4711363636363635 Q -1.6656617320667608 0.4681818181818181 -1.6606617320667607 0.4681818181818181 L -1.472934459339488 0.4681818181818181 Q -1.467934459339488 0.4681818181818181 -1.4652071866122154 0.4711363636363635 Q -1.4624799138849425 0.474090909090909 -1.4624799138849425 0.479090909090909 L -1.4624799138849425 0.4963636363636363 Q -1.4624799138849425 0.5013636363636362 -1.4652071866122154 0.5040909090909089 Q -1.467934459339488 0.5068181818181817 -1.472934459339488 0.5068181818181817 L -1.6274799138849425 0.5068181818181817 L -1.6274799138849425 0.6063636363636362 L -1.482934459339488 0.6063636363636362 Q -1.477934459339488 0.6063636363636362 -1.4752071866122154 0.6093181818181818 Q -1.4724799138849425 0.6122727272727272 -1.4724799138849425 0.6172727272727272 L -1.4724799138849425 0.634090909090909 Q -1.4724799138849425 0.6386363636363636 -1.4752071866122154 0.641590909090909 Q -1.477934459339488 0.6445454545454544 -1.482934459339488 0.6445454545454544 L -1.6274799138849425 0.6445454545454544 L -1.6274799138849425 0.7477272727272726 L -1.4692980957031243 0.7477272727272726 Q -1.4642980957031244 0.7477272727272726 -1.4615708229758517 0.7504545454545454 Q -1.458843550248579 0.7531818181818181 -1.458843550248579 0.7581818181818181 L -1.458843550248579 0.7759090909090908 Q -1.458843550248579 0.7804545454545454 -1.4615708229758517 0.7834090909090908 Q -1.4642980957031244 0.7863636363636363 -1.4692980957031243 0.7863636363636363 L -1.6606617320667607 0.7863636363636363 M -1.3806535200639198 0.7863636363636363 Q -1.38565352006392 0.7863636363636363 -1.3883807927911926 0.7834090909090908 Q -1.3911080655184653 0.7804545454545454 -1.3911080655184653 0.7759090909090908 L -1.3911080655184653 0.479090909090909 Q -1.3911080655184653 0.474090909090909 -1.3883807927911926 0.4711363636363635 Q -1.38565352006392 0.4681818181818181 -1.3806535200639198 0.4681818181818181 L -1.269744429154829 0.4681818181818181 Q -1.2183807927911925 0.4681818181818181 -1.1883807927911927 0.4922727272727272 Q -1.1583807927911927 0.5163636363636362 -1.1583807927911927 0.5636363636363635 Q -1.1583807927911927 0.5986363636363635 -1.1758807927911925 0.6206818181818181 Q -1.1933807927911926 0.6427272727272726 -1.2233807927911926 0.6513636363636363 L -1.1533807927911925 0.7722727272727272 Q -1.1520171564275563 0.7749999999999999 -1.1520171564275563 0.7772727272727272 Q -1.1520171564275563 0.7809090909090908 -1.1549717018821017 0.7836363636363636 Q -1.1579262473366472 0.7863636363636363 -1.1615626109730108 0.7863636363636363 L -1.1833807927911926 0.7863636363636363 Q -1.1911080655184654 0.7863636363636363 -1.194744429154829 0.7822727272727271 Q -1.1983807927911927 0.7781818181818181 -1.2011080655184654 0.7740909090909089 L -1.2670171564275563 0.6586363636363636 L -1.3465626109730109 0.6586363636363636 L -1.3465626109730109 0.7759090909090908 Q -1.3465626109730109 0.7804545454545454 -1.3495171564275563 0.7834090909090908 Q -1.3524717018821018 0.7863636363636363 -1.3574717018821016 0.7863636363636363 L -1.3806535200639198 0.7863636363636363 M -1.3465626109730109 0.6199999999999999 L -1.2715626109730107 0.6199999999999999 Q -1.2374717018821018 0.6199999999999999 -1.22065352006392 0.6056818181818181 Q -1.203835338245738 0.5913636363636363 -1.203835338245738 0.5631818181818181 Q -1.203835338245738 0.5354545454545454 -1.2204262473366472 0.5209090909090908 Q -1.2370171564275563 0.5063636363636362 -1.2715626109730107 0.5063636363636362 L -1.3465626109730109 0.5063636363636362 L -1.3465626109730109 0.6199999999999999 M -0.9733568226207381 0.7909090909090908 Q -1.0138113680752836 0.7909090909090908 -1.041765913529829 0.7759090909090908 Q -1.0697204589843745 0.7609090909090908 -1.0844931862571017 0.7336363636363635 Q -1.099265913529829 0.7063636363636363 -1.1010840953480108 0.6695454545454544 Q -1.1015386408025563 0.6495454545454544 -1.1015386408025563 0.6270454545454545 Q -1.1015386408025563 0.6045454545454545 -1.1010840953480108 0.584090909090909 Q -1.099265913529829 0.5472727272727271 -1.0844931862571017 0.5202272727272726 Q -1.0697204589843745 0.4931818181818181 -1.0415386408025564 0.4784090909090908 Q -1.0133568226207381 0.4636363636363635 -0.9733568226207381 0.4636363636363635 Q -0.9415386408025563 0.4636363636363635 -0.9179022771661927 0.4727272727272726 Q -0.894265913529829 0.4818181818181817 -0.8790386408025563 0.49568181818181806 Q -0.8638113680752836 0.5095454545454545 -0.8563113680752836 0.5245454545454544 Q -0.8488113680752836 0.5395454545454544 -0.8483568226207381 0.5509090909090908 Q -0.8479022771661927 0.5549999999999999 -0.8506295498934654 0.5574999999999999 Q -0.8533568226207382 0.5599999999999999 -0.8579022771661926 0.5599999999999999 L -0.8847204589843745 0.5599999999999999 Q -0.8892659135298291 0.5599999999999999 -0.8913113680752835 0.5581818181818181 Q -0.8933568226207381 0.5563636363636363 -0.89517500443892 0.5518181818181818 Q -0.8992659135298291 0.5399999999999999 -0.9085840953480109 0.5286363636363636 Q -0.9179022771661927 0.5172727272727271 -0.9335840953480109 0.5097727272727272 Q -0.949265913529829 0.5022727272727272 -0.9733568226207381 0.5022727272727272 Q -1.0097204589843745 0.5022727272727272 -1.0317659135298292 0.5218181818181817 Q -1.0538113680752836 0.5413636363636363 -1.0556295498934654 0.5863636363636362 Q -1.0569931862571018 0.6268181818181817 -1.0556295498934654 0.6672727272727271 Q -1.0538113680752836 0.7127272727272727 -1.0315386408025564 0.7324999999999999 Q -1.009265913529829 0.7522727272727272 -0.9733568226207381 0.7522727272727272 Q -0.949265913529829 0.7522727272727272 -0.9304022771661927 0.743181818181818 Q -0.9115386408025563 0.734090909090909 -0.9006295498934654 0.7156818181818181 Q -0.8897204589843745 0.6972727272727272 -0.8897204589843745 0.6686363636363636 L -0.8897204589843745 0.6495454545454544 L -0.9579022771661927 0.6495454545454544 Q -0.9624477317116472 0.6495454545454544 -0.9654022771661926 0.646590909090909 Q -0.9683568226207382 0.6436363636363636 -0.9683568226207382 0.6386363636363636 L -0.9683568226207382 0.624090909090909 Q -0.9683568226207382 0.619090909090909 -0.9654022771661926 0.6161363636363635 Q -0.9624477317116472 0.613181818181818 -0.9579022771661927 0.613181818181818 L -0.8551750044389199 0.613181818181818 Q -0.85017500443892 0.613181818181818 -0.8474477317116472 0.6161363636363635 Q -0.8447204589843744 0.619090909090909 -0.8447204589843744 0.624090909090909 L -0.8447204589843744 0.6677272727272726 Q -0.8447204589843744 0.7049999999999998 -0.8599477317116473 0.7327272727272727 Q -0.8751750044389199 0.7604545454545454 -0.904265913529829 0.7756818181818181 Q -0.9333568226207382 0.7909090909090908 -0.9733568226207381 0.7909090909090908 M -0.7647344415838062 0.7863636363636363 Q -0.7697344415838062 0.7863636363636363 -0.772461714311079 0.7834090909090908 Q -0.7751889870383517 0.7804545454545454 -0.7751889870383517 0.7759090909090908 L -0.7751889870383517 0.4786363636363635 Q -0.7751889870383517 0.474090909090909 -0.772461714311079 0.4711363636363635 Q -0.7697344415838062 0.4681818181818181 -0.7647344415838062 0.4681818181818181 L -0.7406435324928972 0.4681818181818181 Q -0.7356435324928972 0.4681818181818181 -0.7329162597656245 0.4711363636363635 Q -0.7301889870383517 0.474090909090909 -0.7301889870383517 0.4786363636363635 L -0.7301889870383517 0.7759090909090908 Q -0.7301889870383517 0.7804545454545454 -0.7329162597656245 0.7834090909090908 Q -0.7356435324928972 0.7863636363636363 -0.7406435324928972 0.7863636363636363 L -0.7647344415838062 0.7863636363636363 M -0.6570025079900563 0.7863636363636363 Q -0.6620025079900563 0.7863636363636363 -0.664729780717329 0.7831818181818181 Q -0.6674570534446017 0.7799999999999999 -0.6674570534446017 0.7754545454545454 L -0.6674570534446017 0.7559090909090909 Q -0.6674570534446017 0.749090909090909 -0.664729780717329 0.7449999999999999 Q -0.6620025079900563 0.7409090909090909 -0.6606388716264199 0.739090909090909 L -0.4915479625355108 0.5077272727272726 L -0.6529115988991472 0.5077272727272726 Q -0.6574570534446017 0.5077272727272726 -0.6604115988991472 0.5047727272727272 Q -0.6633661443536927 0.5018181818181817 -0.6633661443536927 0.4972727272727272 L -0.6633661443536927 0.479090909090909 Q -0.6633661443536927 0.474090909090909 -0.6604115988991472 0.4711363636363635 Q -0.6574570534446017 0.4681818181818181 -0.6529115988991472 0.4681818181818181 L -0.44700250799005625 0.4681818181818181 Q -0.4420025079900563 0.4681818181818181 -0.4390479625355108 0.4711363636363635 Q -0.4360934170809654 0.474090909090909 -0.4360934170809654 0.479090909090909 L -0.4360934170809654 0.49863636363636354 Q -0.4360934170809654 0.5040909090909089 -0.4379115988991472 0.5077272727272726 Q -0.43972978071732904 0.5113636363636362 -0.4420025079900563 0.5145454545454544 L -0.609729780717329 0.7468181818181817 L -0.44245705344460173 0.7468181818181817 Q -0.43745705344460173 0.7468181818181817 -0.4345025079900563 0.7497727272727271 Q -0.43154796253551087 0.7527272727272726 -0.43154796253551087 0.7577272727272726 L -0.43154796253551087 0.7759090909090908 Q -0.43154796253551087 0.7804545454545454 -0.4345025079900563 0.7834090909090908 Q -0.43745705344460173 0.7863636363636363 -0.44245705344460173 0.7863636363636363 L -0.6570025079900563 0.7863636363636363 M -0.35883178710937447 0.7863636363636363 Q -0.36383178710937447 0.7863636363636363 -0.36655905983664716 0.7834090909090908 Q -0.3692863325639199 0.7804545454545454 -0.3692863325639199 0.7759090909090908 L -0.3692863325639199 0.479090909090909 Q -0.3692863325639199 0.474090909090909 -0.36655905983664716 0.4711363636363635 Q -0.36383178710937447 0.4681818181818181 -0.35883178710937447 0.4681818181818181 L -0.17110451438210172 0.4681818181818181 Q -0.16610451438210172 0.4681818181818181 -0.163377241654829 0.4711363636363635 Q -0.16064996892755629 0.474090909090909 -0.16064996892755629 0.479090909090909 L -0.16064996892755629 0.4963636363636363 Q -0.16064996892755629 0.5013636363636362 -0.163377241654829 0.5040909090909089 Q -0.16610451438210172 0.5068181818181817 -0.17110451438210172 0.5068181818181817 L -0.32564996892755627 0.5068181818181817 L -0.32564996892755627 0.6063636363636362 L -0.18110451438210173 0.6063636363636362 Q -0.17610451438210173 0.6063636363636362 -0.173377241654829 0.6093181818181818 Q -0.17064996892755627 0.6122727272727272 -0.17064996892755627 0.6172727272727272 L -0.17064996892755627 0.634090909090909 Q -0.17064996892755627 0.6386363636363636 -0.173377241654829 0.641590909090909 Q -0.17610451438210173 0.6445454545454544 -0.18110451438210173 0.6445454545454544 L -0.32564996892755627 0.6445454545454544 L -0.32564996892755627 0.7477272727272726 L -0.1674681507457381 0.7477272727272726 Q -0.1624681507457381 0.7477272727272726 -0.15974087801846537 0.7504545454545454 Q -0.15701360529119263 0.7531818181818181 -0.15701360529119263 0.7581818181818181 L -0.15701360529119263 0.7759090909090908 Q -0.15701360529119263 0.7804545454545454 -0.15974087801846537 0.7834090909090908 Q -0.1624681507457381 0.7863636363636363 -0.1674681507457381 0.7863636363636363 L -0.35883178710937447 0.7863636363636363 M 0.10890525124289831 0.7863636363636363 Q 0.10435979669744376 0.7863636363636363 0.1014052512428983 0.7834090909090908 Q 0.09845070578835284 0.7804545454545454 0.09845070578835284 0.7759090909090908 L 0.09845070578835284 0.6686363636363636 L -0.011094748757101702 0.4831818181818181 Q -0.011549294211647156 0.4818181818181817 -0.01200383966619261 0.48045454545454536 Q -0.012458385120738066 0.479090909090909 -0.012458385120738066 0.4772727272727272 Q -0.012458385120738066 0.4736363636363635 -0.009731112393465337 0.47090909090909083 Q -0.007003839666192609 0.4681818181818181 -0.003367476029828974 0.4681818181818181 L 0.020268887606534662 0.4681818181818181 Q 0.02435979669744375 0.4681818181818181 0.027541614879261933 0.4702272727272726 Q 0.030723433061080115 0.4722727272727272 0.03208706942471648 0.47590909090909084 L 0.12072343306108012 0.6231818181818181 L 0.20935979669744376 0.47590909090909084 Q 0.21163252397017102 0.4722727272727272 0.2145870694247165 0.4702272727272726 Q 0.21754161487926194 0.4681818181818181 0.22163252397017102 0.4681818181818181 L 0.24481434215198922 0.4681818181818181 Q 0.2489052512428983 0.4681818181818181 0.251632523970171 0.47090909090909083 Q 0.25435979669744374 0.4736363636363635 0.25435979669744374 0.4772727272727272 Q 0.25435979669744374 0.479090909090909 0.2539052512428983 0.48045454545454536 Q 0.2534507057883528 0.4818181818181817 0.2525416148792619 0.4831818181818181 L 0.14345070578835284 0.6686363636363636 L 0.14345070578835284 0.7759090909090908 Q 0.14345070578835284 0.7804545454545454 0.1404961603338074 0.7834090909090908 Q 0.13754161487926192 0.7863636363636363 0.13254161487926192 0.7863636363636363 L 0.10890525124289831 0.7863636363636363 M 0.41297041459517103 0.7909090909090908 Q 0.3738795055042619 0.7909090909090908 0.3461522327769892 0.7774999999999999 Q 0.3184249600497165 0.764090909090909 0.3034249600497165 0.7361363636363636 Q 0.28842496004971646 0.708181818181818 0.28660677823153463 0.6659090909090908 Q 0.2861522327769892 0.6459090909090908 0.2861522327769892 0.6275 Q 0.2861522327769892 0.609090909090909 0.28660677823153463 0.589090909090909 Q 0.28842496004971646 0.5472727272727271 0.30410677823153465 0.5193181818181818 Q 0.31978859641335283 0.4913636363636363 0.3477431418678983 0.4774999999999999 Q 0.37569768732244374 0.4636363636363635 0.41297041459517103 0.4636363636363635 Q 0.44978859641335284 0.4636363636363635 0.4777431418678983 0.4774999999999999 Q 0.5056976873224437 0.4913636363636363 0.5216067782315347 0.5193181818181818 Q 0.5375158691406255 0.5472727272727271 0.5388795055042619 0.589090909090909 Q 0.5397885964133529 0.609090909090909 0.5397885964133529 0.6275 Q 0.5397885964133529 0.6459090909090908 0.5388795055042619 0.6659090909090908 Q 0.5375158691406255 0.708181818181818 0.5222885964133528 0.7361363636363636 Q 0.5070613236860801 0.764090909090909 0.4793340509588074 0.7774999999999999 Q 0.4516067782315346 0.7909090909090908 0.41297041459517103 0.7909090909090908 M 0.41297041459517103 0.7522727272727272 Q 0.4475158691406256 0.7522727272727272 0.4695613236860801 0.7313636363636362 Q 0.49160677823153465 0.7104545454545453 0.4934249600497165 0.6636363636363636 Q 0.49433405095880734 0.6431818181818181 0.49433405095880734 0.6270454545454545 Q 0.49433405095880734 0.6109090909090908 0.4934249600497165 0.5909090909090908 Q 0.49251586914062556 0.5595454545454545 0.4818340509588074 0.5399999999999999 Q 0.4711522327769892 0.5204545454545453 0.45342496004971644 0.5113636363636362 Q 0.43569768732244374 0.5022727272727272 0.41297041459517103 0.5022727272727272 Q 0.3902431418678983 0.5022727272727272 0.37251586914062557 0.5113636363636362 Q 0.3547885964133528 0.5204545454545453 0.3441067782315346 0.5399999999999999 Q 0.33342496004971645 0.5595454545454545 0.3320613236860801 0.5909090909090908 Q 0.3316067782315346 0.6109090909090908 0.3316067782315346 0.6270454545454545 Q 0.3316067782315346 0.6431818181818181 0.3320613236860801 0.6636363636363636 Q 0.33387950550426193 0.7104545454545453 0.3561522327769892 0.7313636363636362 Q 0.3784249600497165 0.7522727272727272 0.41297041459517103 0.7522727272727272 M 0.7306985751065346 0.7909090909090908 Q 0.6925167569247164 0.7909090909090908 0.6650167569247164 0.7772727272727272 Q 0.6375167569247164 0.7636363636363636 0.6227440296519892 0.7356818181818181 Q 0.6079713023792619 0.7077272727272726 0.6079713023792619 0.6636363636363636 L 0.6079713023792619 0.479090909090909 Q 0.6079713023792619 0.474090909090909 0.6106985751065346 0.4711363636363635 Q 0.6134258478338073 0.4681818181818181 0.6184258478338073 0.4681818181818181 L 0.6416076660156255 0.4681818181818181 Q 0.6466076660156255 0.4681818181818181 0.6495622114701709 0.4711363636363635 Q 0.6525167569247163 0.474090909090909 0.6525167569247163 0.479090909090909 L 0.6525167569247163 0.6645454545454544 Q 0.6525167569247163 0.709090909090909 0.6734258478338073 0.7304545454545454 Q 0.6943349387428982 0.7518181818181817 0.7306985751065346 0.7518181818181817 Q 0.7666076660156255 0.7518181818181817 0.7877440296519891 0.7304545454545454 Q 0.8088803932883528 0.709090909090909 0.8088803932883528 0.6645454545454544 L 0.8088803932883528 0.479090909090909 Q 0.8088803932883528 0.474090909090909 0.8118349387428982 0.4711363636363635 Q 0.8147894841974437 0.4681818181818181 0.8193349387428982 0.4681818181818181 L 0.8429713023792618 0.4681818181818181 Q 0.8475167569247164 0.4681818181818181 0.8504713023792618 0.4711363636363635 Q 0.8534258478338073 0.474090909090909 0.8534258478338073 0.479090909090909 L 0.8534258478338073 0.6636363636363636 Q 0.8534258478338073 0.7077272727272726 0.8386531205610801 0.7356818181818181 Q 0.8238803932883527 0.7636363636363636 0.7966076660156255 0.7772727272727272 Q 0.7693349387428983 0.7909090909090908 0.7306985751065346 0.7909090909090908 M 0.9443298339843755 0.7863636363636363 Q 0.9393298339843755 0.7863636363636363 0.9366025612571027 0.7834090909090908 Q 0.93387528852983 0.7804545454545454 0.93387528852983 0.7759090909090908 L 0.93387528852983 0.479090909090909 Q 0.93387528852983 0.474090909090909 0.9366025612571027 0.4711363636363635 Q 0.9393298339843755 0.4681818181818181 0.9443298339843755 0.4681818181818181 L 1.0552389248934664 0.4681818181818181 Q 1.1066025612571027 0.4681818181818181 1.1366025612571027 0.4922727272727272 Q 1.1666025612571027 0.5163636363636362 1.1666025612571027 0.5636363636363635 Q 1.1666025612571027 0.5986363636363635 1.1491025612571026 0.6206818181818181 Q 1.1316025612571028 0.6427272727272726 1.1016025612571028 0.6513636363636363 L 1.1716025612571028 0.7722727272727272 Q 1.172966197620739 0.7749999999999999 1.172966197620739 0.7772727272727272 Q 1.172966197620739 0.7809090909090908 1.1700116521661936 0.7836363636363636 Q 1.1670571067116482 0.7863636363636363 1.1634207430752845 0.7863636363636363 L 1.1416025612571028 0.7863636363636363 Q 1.13387528852983 0.7863636363636363 1.1302389248934663 0.7822727272727271 Q 1.1266025612571027 0.7781818181818181 1.12387528852983 0.7740909090909089 L 1.057966197620739 0.6586363636363636 L 0.9784207430752846 0.6586363636363636 L 0.9784207430752846 0.7759090909090908 Q 0.9784207430752846 0.7804545454545454 0.9754661976207392 0.7834090909090908 Q 0.9725116521661936 0.7863636363636363 0.9675116521661937 0.7863636363636363 L 0.9443298339843755 0.7863636363636363 M 0.9784207430752846 0.6199999999999999 L 1.0534207430752847 0.6199999999999999 Q 1.0875116521661936 0.6199999999999999 1.1043298339843755 0.6056818181818181 Q 1.1211480158025573 0.5913636363636363 1.1211480158025573 0.5631818181818181 Q 1.1211480158025573 0.5354545454545454 1.1045571067116482 0.5209090909090908 Q 1.087966197620739 0.5063636363636362 1.0534207430752847 0.5063636363636362 L 0.9784207430752846 0.5063636363636362 L 0.9784207430752846 0.6199999999999999 M 1.36252274946733 0.7863636363636363 Q 1.3575227494673299 0.7863636363636363 1.3547954767400572 0.7834090909090908 Q 1.3520682040127845 0.7804545454545454 1.3520682040127845 0.7759090909090908 L 1.3520682040127845 0.479090909090909 Q 1.3520682040127845 0.474090909090909 1.3547954767400572 0.4711363636363635 Q 1.3575227494673299 0.4681818181818181 1.36252274946733 0.4681818181818181 L 1.465704567649148 0.4681818181818181 Q 1.51252274946733 0.4681818181818181 1.5411591131036935 0.4822727272727272 Q 1.5697954767400573 0.4963636363636363 1.5829772949218754 0.5238636363636362 Q 1.5961591131036936 0.5513636363636363 1.5966136585582391 0.5913636363636363 Q 1.5970682040127846 0.6118181818181817 1.5970682040127846 0.6272727272727272 Q 1.5970682040127846 0.6427272727272726 1.5966136585582391 0.6627272727272726 Q 1.5957045676491481 0.7045454545454545 1.5827500221946027 0.7320454545454544 Q 1.5697954767400573 0.7595454545454544 1.5418409312855117 0.7729545454545453 Q 1.5138863858309664 0.7863636363636363 1.4679772949218755 0.7863636363636363 L 1.36252274946733 0.7863636363636363 M 1.396613658558239 0.7477272727272726 L 1.465704567649148 0.7477272727272726 Q 1.4970682040127845 0.7477272727272726 1.515704567649148 0.739090909090909 Q 1.5343409312855119 0.7304545454545454 1.5427500221946027 0.7113636363636363 Q 1.5511591131036937 0.6922727272727272 1.551613658558239 0.6609090909090908 Q 1.55252274946733 0.6472727272727272 1.55252274946733 0.6370454545454545 Q 1.55252274946733 0.6268181818181817 1.55252274946733 0.616590909090909 Q 1.55252274946733 0.6063636363636362 1.551613658558239 0.593181818181818 Q 1.5507045676491482 0.549090909090909 1.5307045676491482 0.5279545454545453 Q 1.5107045676491482 0.5068181818181817 1.4634318403764208 0.5068181818181817 L 1.396613658558239 0.5068181818181817 L 1.396613658558239 0.7477272727272726 M 1.6429781827059662 0.7863636363636363 Q 1.6393418190696027 0.7863636363636363 1.6366145463423298 0.7836363636363636 Q 1.6338872736150571 0.7809090909090908 1.6338872736150571 0.7772727272727272 Q 1.6338872736150571 0.7749999999999999 1.6343418190696026 0.7722727272727272 L 1.7470690917968754 0.4781818181818181 Q 1.7488872736150571 0.4736363636363635 1.7520690917968753 0.47090909090909083 Q 1.7552509099786935 0.4681818181818181 1.7616145463423298 0.4681818181818181 L 1.7925236372514208 0.4681818181818181 Q 1.7988872736150572 0.4681818181818181 1.8020690917968754 0.47090909090909083 Q 1.8052509099786935 0.4736363636363635 1.8070690917968755 0.4781818181818181 L 1.9193418190696026 0.7722727272727272 Q 1.9202509099786935 0.7749999999999999 1.9202509099786935 0.7772727272727272 Q 1.9202509099786935 0.7809090909090908 1.9175236372514208 0.7836363636363636 Q 1.9147963645241481 0.7863636363636363 1.9111600008877845 0.7863636363636363 L 1.8879781827059663 0.7863636363636363 Q 1.882523637251421 0.7863636363636363 1.880023637251421 0.7836363636363636 Q 1.8775236372514208 0.7809090909090908 1.87661454634233 0.7786363636363636 L 1.85161454634233 0.714090909090909 L 1.7025236372514208 0.714090909090909 L 1.6775236372514208 0.7786363636363636 Q 1.6770690917968754 0.7809090909090908 1.6743418190696027 0.7836363636363636 Q 1.67161454634233 0.7863636363636363 1.6661600008877844 0.7863636363636363 L 1.6429781827059662 0.7863636363636363 M 1.715705455433239 0.6749999999999999 L 1.8384327281605117 0.6749999999999999 L 1.7770690917968754 0.5136363636363636 L 1.715705455433239 0.6749999999999999 M 2.036142467151989 0.7863636363636363 Q 2.0315970126065346 0.7863636363636363 2.028642467151989 0.7834090909090908 Q 2.0256879216974437 0.7804545454545454 2.0256879216974437 0.7759090909090908 L 2.0256879216974437 0.6686363636363636 L 1.9161424671519889 0.4831818181818181 Q 1.9156879216974436 0.4818181818181817 1.9152333762428981 0.48045454545454536 Q 1.9147788307883526 0.479090909090909 1.9147788307883526 0.4772727272727272 Q 1.9147788307883526 0.4736363636363635 1.9175061035156253 0.47090909090909083 Q 1.920233376242898 0.4681818181818181 1.9238697398792617 0.4681818181818181 L 1.9475061035156254 0.4681818181818181 Q 1.9515970126065345 0.4681818181818181 1.9547788307883527 0.4702272727272726 Q 1.9579606489701709 0.4722727272727272 1.959324285333807 0.47590909090909084 L 2.0479606489701707 0.6231818181818181 L 2.1365970126065346 0.47590909090909084 Q 2.1388697398792615 0.4722727272727272 2.141824285333807 0.4702272727272726 Q 2.1447788307883524 0.4681818181818181 2.1488697398792618 0.4681818181818181 L 2.1720515580610797 0.4681818181818181 Q 2.176142467151989 0.4681818181818181 2.1788697398792616 0.47090909090909083 Q 2.1815970126065345 0.4736363636363635 2.1815970126065345 0.4772727272727272 Q 2.1815970126065345 0.479090909090909 2.181142467151989 0.48045454545454536 Q 2.1806879216974435 0.4818181818181817 2.1797788307883526 0.4831818181818181 L 2.0706879216974436 0.6686363636363636 L 2.0706879216974436 0.7759090909090908 Q 2.0706879216974436 0.7804545454545454 2.067733376242898 0.7834090909090908 Q 2.064778830788353 0.7863636363636363 2.0597788307883524 0.7863636363636363 L 2.036142467151989 0.7863636363636363 M 2.24476640181108 0.7109090909090908 Q 2.2402209472656254 0.7109090909090908 2.23726640181108 0.7079545454545454 Q 2.2343118563565345 0.7049999999999998 2.2343118563565345 0.7004545454545453 L 2.2343118563565345 0.4786363636363635 Q 2.2343118563565345 0.474090909090909 2.23726640181108 0.4711363636363635 Q 2.2402209472656254 0.4681818181818181 2.24476640181108 0.4681818181818181 L 2.2661300381747163 0.4681818181818181 Q 2.2706754927201707 0.4681818181818181 2.273630038174716 0.4711363636363635 Q 2.2765845836292615 0.474090909090909 2.2765845836292615 0.4786363636363635 L 2.2765845836292615 0.7004545454545453 Q 2.2765845836292615 0.7049999999999998 2.273630038174716 0.7079545454545454 Q 2.2706754927201707 0.7109090909090908 2.2661300381747163 0.7109090909090908 L 2.24476640181108 0.7109090909090908 M 2.240675492720171 0.7863636363636363 Q 2.236130038174716 0.7863636363636363 2.2331754927201706 0.7834090909090908 Q 2.230220947265625 0.7804545454545454 2.230220947265625 0.7759090909090908 L 2.230220947265625 0.7472727272727272 Q 2.230220947265625 0.7422727272727272 2.2331754927201706 0.7393181818181818 Q 2.236130038174716 0.7363636363636362 2.240675492720171 0.7363636363636362 L 2.2697664018110797 0.7363636363636362 Q 2.2743118563565345 0.7363636363636362 2.27726640181108 0.7393181818181818 Q 2.2802209472656254 0.7422727272727272 2.2802209472656254 0.7472727272727272 L 2.2802209472656254 0.7759090909090908 Q 2.2802209472656254 0.7804545454545454 2.27726640181108 0.7834090909090908 Q 2.2743118563565345 0.7863636363636363 2.2697664018110797 0.7863636363636363 L 2.240675492720171 0.7863636363636363" fill="#d56a34" fill-rule="nonzero"></path></g><g clip-path="url(#SvgjsClipPath1002)"><g clip-path="url(#a0b0a6ffd-fba9-4d90-bbc2-57ea035e5bec05939e70-5ea1-4190-8e90-9832fc9a2a3e)"><path d=" M 1.0028912246253288 -1.2797501329060523 C 1.0073457906009222 -1.318393099231431 1.00972260848896 -1.3576814267052173 1.00972260848896 -1.3975206722325222 C 1.00972260848896 -1.408019596281006 1.009486500751738 -1.4184712987820454 1.0091402094038118 -1.4288915202514552 L 0.3658253280521906 -1.4288915202514552 C 0.37999179228552693 -1.4372654746649383 0.3939221487816411 -1.4458440557840142 0.4075849165089034 -1.454611523092868 L 1.008085594844219 -1.454611523092868 C 1.0054812299236808 -1.5019883969723937 0.9995693843194695 -1.5491253723326617 0.9903932550683632 -1.5956780258252692 L 0.5724195981216798 -1.5956780258252692 C 0.5809317305754438 -1.6064717985619894 0.5887948628195907 -1.6177619109018473 0.5959674097806482 -1.629488653795499 L 0.9831368772777322 -1.629488653795499 C 0.9729227921047012 -1.6732949795631638 0.9597868046716165 -1.716368187355156 0.9438170687723166 -1.7584192188346734 L 0.6346890786851007 -1.7584192188346734 C 0.6348464838432493 -1.7735930760801595 0.633555761546434 -1.7889085979679775 0.630690987668137 -1.8043500439823144 L 0.9251015954684974 -1.8043500439823144 C 0.9075624081395299 -1.8445510170617925 0.8874298607403392 -1.8835699865706443 0.8648311604135577 -1.9211604118440813 L 0.58150187574683 -1.9211604118440813 C 0.5720052880292814 -1.935779065174224 0.5617439469954939 -1.9498864387921038 0.5507606483604892 -1.9634236968068686 C 0.546526449606304 -1.9686810290890167 0.5420876241465251 -1.9739383613711659 0.5375071340444131 -1.979227174684945 L 0.8271011440054388 -1.979227174684945 C 0.8014628635500491 -2.0159219527260577 0.7734366094634741 -2.0508890427215034 0.7432041947124559 -2.083901604853488 L 0.42726056127742607 -2.083901604853488 C 0.39666311309564084 -2.108556222247177 0.36508291762931266 -2.1319656853979736 0.3325970991671092 -2.154072824355946 L 0.6722459494192572 -2.154072824355946 C 0.6345614545294465 -2.187896012277837 0.5943887527061038 -2.218839779065404 0.5520671111731206 -2.2466427978628913 L 0.027813491444783622 -2.2466427978628913 C 0.00941154628637264 -2.265598443034891 -0.008251964065963291 -2.2852572369585373 -0.025137603756264837 -2.3055752890735715 L 0.44978523940843096 -2.3055752890735715 C 0.3300326774390825 -2.3655457426327917 0.1994525755294818 -2.400847065530673 0.06579535610593967 -2.4093839908722976 L -0.06581109662175522 -2.4093839908722976 C -0.07558210887641648 -2.408733019054278 -0.08534240844159491 -2.4079301557029487 -0.09508845603730898 -2.406975691952631 C -0.10757068507846801 -2.430051288137154 -0.1171094376622479 -2.4524028205941955 -0.12367323275702702 -2.4739830677763117 C -0.14525347993914273 -2.5450200156485865 -0.134156416289696 -2.606691356611044 -0.09041352284031601 -2.657548963208722 C -0.08781633773087105 -2.6607285474033153 -0.08175623914216612 -2.6690867613009837 -0.08175623914216612 -2.677885709641467 C -0.08175623914216612 -2.693374377203248 -0.09384495528794656 -2.7059825303709175 -0.10867252118550519 -2.7059825303709175 C -0.11348911902483949 -2.7059825303709175 -0.11855756511721105 -2.7038890417675465 -0.12090290197361897 -2.7027714651446946 C -0.26159163232646443 -2.638597382167681 -0.34531543594548253 -2.549569024719069 -0.3697761975217101 -2.4381576537817855 C -0.3771112778914154 -2.4046933171594818 -0.37840200018823056 -2.371339164147882 -0.3753011185727113 -2.3390553662116895 C -0.40057763464551777 -2.328909030377373 -0.42543142345543183 -2.317739791248134 -0.44980097992424484 -2.3055752890735723 L -0.37046878021756213 -2.3055752890735723 C -0.3665924066440288 -2.285548927154858 -0.36119347630817056 -2.26584756733278 -0.3543190109915587 -2.2466427978628913 L -0.5520828516889349 -2.2466427978628913 C -0.5943989619952403 -2.2188320122568586 -0.6345710973245733 -2.187888681821782 -0.6722616899350702 -2.1540728243559473 L -0.3082307806857709 -2.1540728243559473 C -0.299231524784606 -2.140274139309248 -0.289363266763322 -2.1270621348300325 -0.27868583250135703 -2.1145169081133073 C -0.26978535051572117 -2.1041934490753977 -0.26074951341293573 -2.09398746582051 -0.2515806642682473 -2.083901604853494 L -0.7432199352282733 -2.083901604853494 C -0.7734527507702897 -2.05088523932754 -0.8014840009758446 -2.015918476268651 -0.8271326250370691 -1.979227174684945 L -0.16119862245955408 -1.979227174684945 C -0.1468275315206251 -1.960181150549015 -0.13404623267899285 -1.940836056612603 -0.12395656204169425 -1.9211604118440804 L -0.8648311604135588 -1.9211604118440804 C -0.8874359586686738 -1.8835733883327257 -0.9075687142320671 -1.844554015380011 -0.9251015954684975 -1.8043500439823146 L -0.1049577594532084 -1.8043500439823146 C -0.10887714789109804 -1.7887511928098294 -0.11566131020728498 -1.7734986329852704 -0.12532598691758323 -1.7584192188346748 L -0.9438328092881315 -1.7584192188346748 C -0.9598025451874317 -1.7163681873551566 -0.9729385326205167 -1.6732949795631635 -0.9831526177935478 -1.6294886537954973 L -0.024476502092042884 -1.6294886537954973 C -0.043167420440421544 -1.618116790141448 -0.06191989759462435 -1.606846414951961 -0.08073310561418157 -1.595678025825282 L -0.9904089955841785 -1.595678025825282 C -0.9995773886879259 -1.5491241266457423 -1.0054891662736938 -1.501987693617582 -1.0081013353600343 -1.4546115230928676 L -0.30505119649117773 -1.4546115230928676 C -0.31638601798484445 -1.4463367357873964 -0.32749754637284434 -1.4377603364553266 -0.3383738684711475 -1.4288915202514554 L -1.009155949919627 -1.4288915202514554 C -1.0095186227914636 -1.41843843245432 -1.0097075350702982 -1.4079800387954955 -1.0097226084889603 -1.3975206722325202 C -1.0097226084889603 -1.3576814267052173 -1.0073615311167377 -1.318393099231431 -1.002922705656959 -1.279750132906052 L -0.4370669026300582 -1.279750132906052 C -0.4379203270104476 -1.271297950150205 -0.4380572329096766 -1.2627887219519782 -0.43747615604124357 -1.254313459349306 L -0.9996014568200323 -1.254313459349306 C -0.9333181447238328 -0.7834674097806478 -0.5451412842146002 -0.4166346887163095 -0.06581109662175544 -0.3856573535927468 L 0.0657953561059399 -0.3856573535927468 C 0.5451255436987852 -0.4166346887163095 0.9333024042080176 -0.7834674097806482 0.9995857163042172 -1.254313459349306 L 0.04752061724493628 -1.254313459349306 C 0.0613709551783852 -1.2630690399047377 0.07539325471389313 -1.2715495923184286 0.08957927550212585 -1.2797501329060494 Z M 0.6063404097026133 -1.7535081779004513 C 0.6008469696832417 -1.5993298254943067 0.42173564022642496 -1.4863286624597267 0.24725202241916477 -1.3961197663250033 L 0.22885135943164236 -1.386628235288668 C 0.05616216042727151 -1.2974582131977228 -0.10698828599331944 -1.2132464535884453 -0.12672689282510163 -1.0994740052789391 C -0.13587213251351093 -1.0467747583309277 -0.11462243616350631 -0.9929736752758789 -0.06178152457316144 -0.9351115391406071 C -0.15935698210921967 -0.9838284355874694 -0.38161306541445317 -1.1081155484612744 -0.40709696051864397 -1.2402571787266734 C -0.4154079528688681 -1.2833074894802012 -0.4026266540272354 -1.3231624755233211 -0.36804474078208005 -1.3620730306175517 C -0.31161499158595674 -1.4255702714145284 -0.20442207888704456 -1.4891934363380237 -0.09093295986220495 -1.556547103509631 C 0.10705124805657884 -1.674065794583064 0.3117881372599196 -1.7955983171892755 0.33303783360992445 -1.9558210276683103 C 0.3428126939309264 -2.0295181227132892 0.31098537095336387 -2.105387408940713 0.2384215930470519 -2.181366878778841 C 0.4872004455002541 -2.0280385142266963 0.6109996023837996 -1.8841072376159986 0.6063404097026133 -1.7535081779004518 M 0.22505789512027108 -2.154072824355946 C 0.24698443365031308 -2.130257423928126 0.26440918465731666 -2.106914238974751 0.2774265912361713 -2.0839016048534864 L 0.17679747363203835 -2.0839016048534864 C 0.16396895324296157 -2.1073549734175656 0.1463080944987356 -2.1307611204342 0.12387785946261953 -2.154072824355946 Z M 0.1999045508481916 -1.962180196057497 C 0.20086472231289565 -1.9678467817508314 0.2014943429454883 -1.9735291079599806 0.201872115325044 -1.979227174684945 L 0.30643636188288137 -1.979227174684945 C 0.3063119542513686 -1.9726513246341697 0.3058179720814591 -1.9660876679297346 0.3049567533962887 -1.9595672704322369 C 0.30317732408291964 -1.9464636039009307 0.30000063850134073 -1.9335880012114748 0.2954809628757684 -1.9211604118440808 L 0.187847315734041 -1.9211604118440808 C 0.19340371781667187 -1.9344139261601574 0.19752773296015413 -1.9480766938874197 0.1999045508481916 -1.962180196057497 M -0.3421043707192595 -2.432034593129821 C -0.3198787623887359 -2.533293331366547 -0.2427502348961268 -2.6150810515403426 -0.11257616910757973 -2.675304265047837 C -0.1617495405130719 -2.617725458197232 -0.1749558332817044 -2.545256123385809 -0.15076266047432885 -2.4656720754260877 C -0.1227917638713969 -2.373621538941031 -0.04526972348341718 -2.2699072802371933 0.07961552899135071 -2.1574098137086875 C 0.15129783801203311 -2.0928107368046733 0.18238535674629897 -2.0287310969225487 0.1719651352768894 -1.966933831833572 C 0.1512348759487736 -1.8438115171300637 -0.02397280558596815 -1.752264677151081 -0.12880464091265753 -1.7079236441007382 C 0.0005194370218892796 -1.848738298580102 -0.11984828741402587 -1.981163258130168 -0.21662097864352814 -2.0876006260699684 C -0.23036997103414747 -2.1025685797502045 -0.24390296745190287 -2.1177335117576934 -0.2572157689299446 -2.1330907167747943 C -0.3124807199557712 -2.1975953505839185 -0.3678873356239315 -2.3145788641196474 -0.34210437071925903 -2.432034593129821 M 0.03056808171237746 -1.7584192188346748 C 0.05260480385312283 -1.7724597589414928 0.07415357000360911 -1.7877910213451256 0.094159765604243 -1.8043500439823146 L 0.21515711067275078 -1.8043500439823146 C 0.1988620267078378 -1.788211078730383 0.18178397336151475 -1.7728823307560462 0.16398469375877567 -1.758419218834674 Z" fill="#d56a34" transform="matrix(1,0,0,1,0,0)" fill-rule="nonzero"></path></g><g clip-path="url(#a0b0a6ffd-fba9-4d90-bbc2-57ea035e5bec05939e70-5ea1-4190-8e90-9832fc9a2a3e)"><path d=" M 0.851955418477037 -0.8989398337981547 L 0.8516248676449261 -0.9005453664112664 C 0.8356797251245149 -0.9680721792568365 0.7911025843369499 -1.008367899742771 0.7293053192479735 -1.0111382305261791 C 0.6747329509179985 -1.013562269961661 0.6152810226854304 -0.9853395251056918 0.569995558686198 -0.9410614541186084 C 0.5709714706667168 -0.9940282898354718 0.5699168561071242 -1.0315536795379983 0.5699168561071242 -1.0381332151485922 C 0.5699168561071242 -1.0585014426129673 0.42831517583701917 -1.076461371157675 -0.029544948184413666 -1.0773270995274895 L -0.02984401798489511 -1.0773743210749342 L -0.0473946931184176 -1.0773585805591195 L -0.06491388722031022 -1.0773743210749342 C -0.06502407083101402 -1.0773743210749342 -0.06511851392590295 -1.0773428400433047 -0.06522869753660676 -1.0773270995274895 C -0.5230730810422246 -1.076461371157675 -0.6646905018281444 -1.0585014426129673 -0.6646905018281444 -1.0381332151485922 C -0.6646905018281444 -1.0172455506623286 -0.6754412741296653 -0.6837040205463301 -0.5967859166030185 -0.5356015072447056 C -0.5181462995921868 -0.3874989939430806 -0.35378383345385467 -0.24699914978001303 -0.3478339184758533 -0.23939648064145613 C -0.34189974401366696 -0.23180955201871356 -0.34103401564385183 -0.22009860825248895 -0.3339822645588133 -0.21440054152752497 C -0.3271508806951824 -0.20890710150815295 -0.24336411501290467 -0.1890425705498524 -0.058129724904123825 -0.18759444309488904 L -0.058129724904123825 -0.1875 L -0.04739469311841771 -0.18753148103162998 L -0.036643920816897046 -0.1875 L -0.03662818030108206 -0.18759444309488904 C 0.14859046929188402 -0.1890425705498524 0.23239297548997628 -0.20890710150815295 0.2391928783219779 -0.21440054152752497 C 0.24627611043864595 -0.22009860825248895 0.2471260982926462 -0.23180955201871356 0.2530602727548328 -0.23939648064145613 C 0.25839630761605603 -0.24621212398927206 0.39115181799823295 -0.35993735075133415 0.47520617244936236 -0.4901586380873253 C 0.47917278243469674 -0.49629743925510406 0.49543273527140386 -0.5144777350212193 0.5162416971785935 -0.5206322767048133 C 0.5410015285553025 -0.5284080915173335 0.56634375901716 -0.5347830004223351 0.5908832231724617 -0.543786575468411 L 0.5912767360678319 -0.5438810185633001 C 0.5920460467000122 -0.5440873404628022 0.5927903270620491 -0.544377662589838 0.5934961487977215 -0.5447467469331149 C 0.664533096669996 -0.5711593324703799 0.7372542797344563 -0.6128559588638334 0.7871517148674303 -0.669600518376253 C 0.8449194079078133 -0.7352856908714895 0.8673181619122996 -0.8146021500623588 0.851955418477037 -0.8989398337981547 M 0.7402134967076426 -0.7112341827064472 C 0.6919373347035949 -0.6563155230285465 0.6196726265977643 -0.6187901333260197 0.5533735739857499 -0.5969265568592372 C 0.5488160852724795 -0.6055819517882419 0.5415678586258392 -0.6125208029072815 0.5327220172367084 -0.6166966447226487 C 0.5478171719031191 -0.6717569690428831 0.5569624115915286 -0.7354903175770822 0.5624401110950854 -0.7965005568753178 C 0.5659817271534195 -0.7966264810018364 0.5694918621801239 -0.7972088800869845 0.5727501489537912 -0.798357937741466 C 0.5837212884767196 -0.8022301046319114 0.5924100532064993 -0.8101633246025797 0.5986118164375376 -0.8199067038919525 C 0.6110310834154293 -0.8394249435023269 0.6122745841648001 -0.8647514334483695 0.6037432245931684 -0.8860011297983743 C 0.6394112334295463 -0.9256042675884566 0.6887734910248164 -0.9499863265856103 0.7265192479487506 -0.9483020913934248 C 0.75947988806498 -0.9468382234226465 0.7809971731838365 -0.9261551856419754 0.7905044447359866 -0.88680389610493 C 0.8021681669547669 -0.8215122365050638 0.7852628529696521 -0.7624538211678658 0.7402134967076426 -0.7112341827064472" fill="#3f170e" transform="matrix(1,0,0,1,0,0)" fill-rule="nonzero"></path></g></g></g><defs><clipPath id="SvgjsClipPath1002"><path d=" M -1.0097226084889603 -2.7059825303709175 h 2.0194452169779207 v 2.5184825303709175 h -2.0194452169779207 Z"></path></clipPath><clipPath id="a0b0a6ffd-fba9-4d90-bbc2-57ea035e5bec05939e70-5ea1-4190-8e90-9832fc9a2a3e"><path d=" M -1.0097068679731453 -0.1875 L 1.0097383490047747 -0.1875 L 1.0097383490047747 -2.7059825303709175 L -1.0097068679731453 -2.7059825303709175 Z"></path></clipPath></defs></svg>